<?xml version="1.0" encoding="UTF-8" standalone="no"?>
<!DOCTYPE svg PUBLIC "-//W3C//DTD SVG 1.1//EN"
 "http://www.w3.org/Graphics/SVG/1.1/DTD/svg11.dtd">
<!-- Generated by graphviz version 12.1.2 (0)
 -->
<!-- Pages: 1 -->
<svg width="2271pt" height="527pt"
 viewBox="0.00 0.00 2270.75 527.00" xmlns="http://www.w3.org/2000/svg" xmlns:xlink="http://www.w3.org/1999/xlink">
<g id="graph0" class="graph" transform="scale(1 1) rotate(0) translate(4 523)">
<polygon fill="white" stroke="none" points="-4,4 -4,-523 2266.75,-523 2266.75,4 -4,4"/>
<!-- node_0x5ceab18f7e40 -->
<g id="node1" class="node">
<title>node_0x5ceab18f7e40</title>
<polygon fill="#bdef9e" stroke="black" points="561.5,-463 561.5,-518.5 922.5,-518.5 922.5,-463 561.5,-463"/>
<text text-anchor="middle" x="742" y="-505.95" font-family="Times,serif" font-size="9.00">41 (\n)</text>
<polyline fill="none" stroke="black" points="561.5,-500 922.5,-500"/>
<text text-anchor="middle" x="742" y="-487.45" font-family="Times,serif" font-size="9.00">type = 3 (KEYWORD)</text>
<polyline fill="none" stroke="black" points="561.5,-481.5 922.5,-481.5"/>
<text text-anchor="middle" x="609.62" y="-468.95" font-family="Times,serif" font-size="9.00">left = 0x5ceab18f8230</text>
<polyline fill="none" stroke="black" points="657.75,-463 657.75,-481.5"/>
<text text-anchor="middle" x="708.5" y="-468.95" font-family="Times,serif" font-size="9.00">node = 0x5ceab18f7e40</text>
<polyline fill="none" stroke="black" points="759.25,-463 759.25,-481.5"/>
<text text-anchor="middle" x="790.5" y="-468.95" font-family="Times,serif" font-size="9.00">parent = (nil)</text>
<polyline fill="none" stroke="black" points="821.75,-463 821.75,-481.5"/>
<text text-anchor="middle" x="872.12" y="-468.95" font-family="Times,serif" font-size="9.00">right = 0x5ceab18f8270</text>
</g>
<!-- node_0x5ceab18f8230 -->
<g id="node2" class="node">
<title>node_0x5ceab18f8230</title>
<polygon fill="#b93cdc" stroke="black" points="329.12,-370.5 329.12,-426 732.88,-426 732.88,-370.5 329.12,-370.5"/>
<text text-anchor="middle" x="531" y="-413.45" font-family="Times,serif" font-size="9.00">0 (Трансаэро)</text>
<polyline fill="none" stroke="black" points="329.12,-407.5 732.88,-407.5"/>
<text text-anchor="middle" x="531" y="-394.95" font-family="Times,serif" font-size="9.00">type = 6 (VAR_DECLARATION)</text>
<polyline fill="none" stroke="black" points="329.12,-389 732.88,-389"/>
<text text-anchor="middle" x="376.5" y="-376.45" font-family="Times,serif" font-size="9.00">left = 0x5ceab18f81f0</text>
<polyline fill="none" stroke="black" points="423.88,-370.5 423.88,-389"/>
<text text-anchor="middle" x="475" y="-376.45" font-family="Times,serif" font-size="9.00">node = 0x5ceab18f8230</text>
<polyline fill="none" stroke="black" points="526.12,-370.5 526.12,-389"/>
<text text-anchor="middle" x="579.12" y="-376.45" font-family="Times,serif" font-size="9.00">parent = 0x5ceab18f7e40</text>
<polyline fill="none" stroke="black" points="632.12,-370.5 632.12,-389"/>
<text text-anchor="middle" x="682.5" y="-376.45" font-family="Times,serif" font-size="9.00">right = 0x5ceab18f81b0</text>
</g>
<!-- node_0x5ceab18f7e40&#45;&gt;node_0x5ceab18f8230 -->
<g id="edge1" class="edge">
<title>node_0x5ceab18f7e40&#45;&gt;node_0x5ceab18f8230</title>
<path fill="none" stroke="black" d="M678.69,-462.6C655.43,-452.62 628.89,-441.24 604.79,-430.9"/>
<polygon fill="black" stroke="black" points="606.22,-427.71 595.65,-426.98 603.46,-434.14 606.22,-427.71"/>
</g>
<!-- node_0x5ceab18f8270 -->
<g id="node7" class="node">
<title>node_0x5ceab18f8270</title>
<polygon fill="#bdef9e" stroke="black" points="751.38,-370.5 751.38,-426 1156.62,-426 1156.62,-370.5 751.38,-370.5"/>
<text text-anchor="middle" x="954" y="-413.45" font-family="Times,serif" font-size="9.00">41 (\n)</text>
<polyline fill="none" stroke="black" points="751.38,-407.5 1156.62,-407.5"/>
<text text-anchor="middle" x="954" y="-394.95" font-family="Times,serif" font-size="9.00">type = 3 (KEYWORD)</text>
<polyline fill="none" stroke="black" points="751.38,-389 1156.62,-389"/>
<text text-anchor="middle" x="799.5" y="-376.45" font-family="Times,serif" font-size="9.00">left = 0x5ceab18f8430</text>
<polyline fill="none" stroke="black" points="847.62,-370.5 847.62,-389"/>
<text text-anchor="middle" x="898.75" y="-376.45" font-family="Times,serif" font-size="9.00">node = 0x5ceab18f8270</text>
<polyline fill="none" stroke="black" points="949.88,-370.5 949.88,-389"/>
<text text-anchor="middle" x="1002.88" y="-376.45" font-family="Times,serif" font-size="9.00">parent = 0x5ceab18f7e40</text>
<polyline fill="none" stroke="black" points="1055.88,-370.5 1055.88,-389"/>
<text text-anchor="middle" x="1106.25" y="-376.45" font-family="Times,serif" font-size="9.00">right = 0x5ceab18f8470</text>
</g>
<!-- node_0x5ceab18f7e40&#45;&gt;node_0x5ceab18f8270 -->
<g id="edge6" class="edge">
<title>node_0x5ceab18f7e40&#45;&gt;node_0x5ceab18f8270</title>
<path fill="none" stroke="black" d="M805.61,-462.6C828.98,-452.62 855.65,-441.24 879.87,-430.9"/>
<polygon fill="black" stroke="black" points="881.22,-434.12 889.05,-426.98 878.47,-427.69 881.22,-434.12"/>
</g>
<!-- node_0x5ceab18f81f0 -->
<g id="node3" class="node">
<title>node_0x5ceab18f81f0</title>
<polygon fill="#bdef9e" stroke="black" points="0,-278 0,-333.5 316,-333.5 316,-278 0,-278"/>
<text text-anchor="middle" x="158" y="-320.95" font-family="Times,serif" font-size="9.00">51 (борт_компании)</text>
<polyline fill="none" stroke="black" points="0,-315 316,-315"/>
<text text-anchor="middle" x="158" y="-302.45" font-family="Times,serif" font-size="9.00">type = 3 (KEYWORD)</text>
<polyline fill="none" stroke="black" points="0,-296.5 316,-296.5"/>
<text text-anchor="middle" x="26" y="-283.95" font-family="Times,serif" font-size="9.00">left = (nil)</text>
<polyline fill="none" stroke="black" points="52,-278 52,-296.5"/>
<text text-anchor="middle" x="102.38" y="-283.95" font-family="Times,serif" font-size="9.00">node = 0x5ceab18f81f0</text>
<polyline fill="none" stroke="black" points="152.75,-278 152.75,-296.5"/>
<text text-anchor="middle" x="206.12" y="-283.95" font-family="Times,serif" font-size="9.00">parent = 0x5ceab18f8230</text>
<polyline fill="none" stroke="black" points="259.5,-278 259.5,-296.5"/>
<text text-anchor="middle" x="287.75" y="-283.95" font-family="Times,serif" font-size="9.00">right = (nil)</text>
</g>
<!-- node_0x5ceab18f8230&#45;&gt;node_0x5ceab18f81f0 -->
<g id="edge2" class="edge">
<title>node_0x5ceab18f8230&#45;&gt;node_0x5ceab18f81f0</title>
<path fill="none" stroke="black" d="M418.83,-370.04C375.42,-359.5 325.58,-347.41 281.18,-336.64"/>
<polygon fill="black" stroke="black" points="282.02,-333.24 271.48,-334.28 280.37,-340.04 282.02,-333.24"/>
</g>
<!-- node_0x5ceab18f81b0 -->
<g id="node4" class="node">
<title>node_0x5ceab18f81b0</title>
<polygon fill="#bdef9e" stroke="black" points="334,-278 334,-333.5 740,-333.5 740,-278 334,-278"/>
<text text-anchor="middle" x="537" y="-320.95" font-family="Times,serif" font-size="9.00">13 (прилетел_во_Внуково)</text>
<polyline fill="none" stroke="black" points="334,-315 740,-315"/>
<text text-anchor="middle" x="537" y="-302.45" font-family="Times,serif" font-size="9.00">type = 3 (KEYWORD)</text>
<polyline fill="none" stroke="black" points="334,-296.5 740,-296.5"/>
<text text-anchor="middle" x="382.12" y="-283.95" font-family="Times,serif" font-size="9.00">left = 0x5ceab18f8170</text>
<polyline fill="none" stroke="black" points="430.25,-278 430.25,-296.5"/>
<text text-anchor="middle" x="481.38" y="-283.95" font-family="Times,serif" font-size="9.00">node = 0x5ceab18f81b0</text>
<polyline fill="none" stroke="black" points="532.5,-278 532.5,-296.5"/>
<text text-anchor="middle" x="585.88" y="-283.95" font-family="Times,serif" font-size="9.00">parent = 0x5ceab18f8230</text>
<polyline fill="none" stroke="black" points="639.25,-278 639.25,-296.5"/>
<text text-anchor="middle" x="689.62" y="-283.95" font-family="Times,serif" font-size="9.00">right = 0x5ceab18f8130</text>
</g>
<!-- node_0x5ceab18f8230&#45;&gt;node_0x5ceab18f81b0 -->
<g id="edge3" class="edge">
<title>node_0x5ceab18f8230&#45;&gt;node_0x5ceab18f81b0</title>
<path fill="none" stroke="black" d="M532.8,-370.1C533.32,-362.31 533.89,-353.67 534.44,-345.34"/>
<polygon fill="black" stroke="black" points="537.93,-345.6 535.1,-335.39 530.95,-345.14 537.93,-345.6"/>
</g>
<!-- node_0x5ceab18f8170 -->
<g id="node5" class="node">
<title>node_0x5ceab18f8170</title>
<polygon fill="#bdef9e" stroke="black" points="80.25,-185.5 80.25,-241 397.75,-241 397.75,-185.5 80.25,-185.5"/>
<text text-anchor="middle" x="239" y="-228.45" font-family="Times,serif" font-size="9.00">61 (осмотреть_на_дефекты)</text>
<polyline fill="none" stroke="black" points="80.25,-222.5 397.75,-222.5"/>
<text text-anchor="middle" x="239" y="-209.95" font-family="Times,serif" font-size="9.00">type = 3 (KEYWORD)</text>
<polyline fill="none" stroke="black" points="80.25,-204 397.75,-204"/>
<text text-anchor="middle" x="106.25" y="-191.45" font-family="Times,serif" font-size="9.00">left = (nil)</text>
<polyline fill="none" stroke="black" points="132.25,-185.5 132.25,-204"/>
<text text-anchor="middle" x="183.38" y="-191.45" font-family="Times,serif" font-size="9.00">node = 0x5ceab18f8170</text>
<polyline fill="none" stroke="black" points="234.5,-185.5 234.5,-204"/>
<text text-anchor="middle" x="287.88" y="-191.45" font-family="Times,serif" font-size="9.00">parent = 0x5ceab18f81b0</text>
<polyline fill="none" stroke="black" points="341.25,-185.5 341.25,-204"/>
<text text-anchor="middle" x="369.5" y="-191.45" font-family="Times,serif" font-size="9.00">right = (nil)</text>
</g>
<!-- node_0x5ceab18f81b0&#45;&gt;node_0x5ceab18f8170 -->
<g id="edge4" class="edge">
<title>node_0x5ceab18f81b0&#45;&gt;node_0x5ceab18f8170</title>
<path fill="none" stroke="black" d="M447.59,-277.6C413.49,-267.24 374.4,-255.37 339.34,-244.72"/>
<polygon fill="black" stroke="black" points="340.64,-241.46 330.05,-241.9 338.6,-248.16 340.64,-241.46"/>
</g>
<!-- node_0x5ceab18f8130 -->
<g id="node6" class="node">
<title>node_0x5ceab18f8130</title>
<polygon fill="#f0ff4f" stroke="black" points="416.25,-185.5 416.25,-241 733.75,-241 733.75,-185.5 416.25,-185.5"/>
<text text-anchor="middle" x="575" y="-228.45" font-family="Times,serif" font-size="9.00">0 (Трансаэро)</text>
<polyline fill="none" stroke="black" points="416.25,-222.5 733.75,-222.5"/>
<text text-anchor="middle" x="575" y="-209.95" font-family="Times,serif" font-size="9.00">type = 2 (IDENTIFIER)</text>
<polyline fill="none" stroke="black" points="416.25,-204 733.75,-204"/>
<text text-anchor="middle" x="442.25" y="-191.45" font-family="Times,serif" font-size="9.00">left = (nil)</text>
<polyline fill="none" stroke="black" points="468.25,-185.5 468.25,-204"/>
<text text-anchor="middle" x="519.38" y="-191.45" font-family="Times,serif" font-size="9.00">node = 0x5ceab18f8130</text>
<polyline fill="none" stroke="black" points="570.5,-185.5 570.5,-204"/>
<text text-anchor="middle" x="623.88" y="-191.45" font-family="Times,serif" font-size="9.00">parent = 0x5ceab18f81b0</text>
<polyline fill="none" stroke="black" points="677.25,-185.5 677.25,-204"/>
<text text-anchor="middle" x="705.5" y="-191.45" font-family="Times,serif" font-size="9.00">right = (nil)</text>
</g>
<!-- node_0x5ceab18f81b0&#45;&gt;node_0x5ceab18f8130 -->
<g id="edge5" class="edge">
<title>node_0x5ceab18f81b0&#45;&gt;node_0x5ceab18f8130</title>
<path fill="none" stroke="black" d="M548.4,-277.6C551.78,-269.54 555.55,-260.57 559.16,-251.98"/>
<polygon fill="black" stroke="black" points="562.38,-253.35 563.02,-242.78 555.92,-250.64 562.38,-253.35"/>
</g>
<!-- node_0x5ceab18f8430 -->
<g id="node8" class="node">
<title>node_0x5ceab18f8430</title>
<polygon fill="#bdef9e" stroke="black" points="768.88,-278 768.88,-333.5 1129.12,-333.5 1129.12,-278 768.88,-278"/>
<text text-anchor="middle" x="949" y="-320.95" font-family="Times,serif" font-size="9.00">62 (починить_двигатель)</text>
<polyline fill="none" stroke="black" points="768.88,-315 1129.12,-315"/>
<text text-anchor="middle" x="949" y="-302.45" font-family="Times,serif" font-size="9.00">type = 3 (KEYWORD)</text>
<polyline fill="none" stroke="black" points="768.88,-296.5 1129.12,-296.5"/>
<text text-anchor="middle" x="794.88" y="-283.95" font-family="Times,serif" font-size="9.00">left = (nil)</text>
<polyline fill="none" stroke="black" points="820.88,-278 820.88,-296.5"/>
<text text-anchor="middle" x="872" y="-283.95" font-family="Times,serif" font-size="9.00">node = 0x5ceab18f8430</text>
<polyline fill="none" stroke="black" points="923.12,-278 923.12,-296.5"/>
<text text-anchor="middle" x="976.5" y="-283.95" font-family="Times,serif" font-size="9.00">parent = 0x5ceab18f8270</text>
<polyline fill="none" stroke="black" points="1029.88,-278 1029.88,-296.5"/>
<text text-anchor="middle" x="1079.5" y="-283.95" font-family="Times,serif" font-size="9.00">right = 0x5ceab18f83f0</text>
</g>
<!-- node_0x5ceab18f8270&#45;&gt;node_0x5ceab18f8430 -->
<g id="edge7" class="edge">
<title>node_0x5ceab18f8270&#45;&gt;node_0x5ceab18f8430</title>
<path fill="none" stroke="black" d="M952.5,-370.1C952.07,-362.31 951.59,-353.67 951.13,-345.34"/>
<polygon fill="black" stroke="black" points="954.63,-345.19 950.58,-335.4 947.64,-345.57 954.63,-345.19"/>
</g>
<!-- node_0x5ceab18f8470 -->
<g id="node10" class="node">
<title>node_0x5ceab18f8470</title>
<polygon fill="#bdef9e" stroke="black" points="1147,-278 1147,-333.5 1553,-333.5 1553,-278 1147,-278"/>
<text text-anchor="middle" x="1350" y="-320.95" font-family="Times,serif" font-size="9.00">41 (\n)</text>
<polyline fill="none" stroke="black" points="1147,-315 1553,-315"/>
<text text-anchor="middle" x="1350" y="-302.45" font-family="Times,serif" font-size="9.00">type = 3 (KEYWORD)</text>
<polyline fill="none" stroke="black" points="1147,-296.5 1553,-296.5"/>
<text text-anchor="middle" x="1195.12" y="-283.95" font-family="Times,serif" font-size="9.00">left = 0x5ceab18f8670</text>
<polyline fill="none" stroke="black" points="1243.25,-278 1243.25,-296.5"/>
<text text-anchor="middle" x="1294.38" y="-283.95" font-family="Times,serif" font-size="9.00">node = 0x5ceab18f8470</text>
<polyline fill="none" stroke="black" points="1345.5,-278 1345.5,-296.5"/>
<text text-anchor="middle" x="1398.88" y="-283.95" font-family="Times,serif" font-size="9.00">parent = 0x5ceab18f8270</text>
<polyline fill="none" stroke="black" points="1452.25,-278 1452.25,-296.5"/>
<text text-anchor="middle" x="1502.62" y="-283.95" font-family="Times,serif" font-size="9.00">right = 0x5ceab18f86b0</text>
</g>
<!-- node_0x5ceab18f8270&#45;&gt;node_0x5ceab18f8470 -->
<g id="edge9" class="edge">
<title>node_0x5ceab18f8270&#45;&gt;node_0x5ceab18f8470</title>
<path fill="none" stroke="black" d="M1073.08,-370.04C1119.47,-359.44 1172.76,-347.26 1220.13,-336.43"/>
<polygon fill="black" stroke="black" points="1220.64,-339.9 1229.61,-334.26 1219.08,-333.08 1220.64,-339.9"/>
</g>
<!-- node_0x5ceab18f83f0 -->
<g id="node9" class="node">
<title>node_0x5ceab18f83f0</title>
<polygon fill="#f0ff4f" stroke="black" points="791,-185.5 791,-241 1107,-241 1107,-185.5 791,-185.5"/>
<text text-anchor="middle" x="949" y="-228.45" font-family="Times,serif" font-size="9.00">0 (Трансаэро)</text>
<polyline fill="none" stroke="black" points="791,-222.5 1107,-222.5"/>
<text text-anchor="middle" x="949" y="-209.95" font-family="Times,serif" font-size="9.00">type = 2 (IDENTIFIER)</text>
<polyline fill="none" stroke="black" points="791,-204 1107,-204"/>
<text text-anchor="middle" x="817" y="-191.45" font-family="Times,serif" font-size="9.00">left = (nil)</text>
<polyline fill="none" stroke="black" points="843,-185.5 843,-204"/>
<text text-anchor="middle" x="893.38" y="-191.45" font-family="Times,serif" font-size="9.00">node = 0x5ceab18f83f0</text>
<polyline fill="none" stroke="black" points="943.75,-185.5 943.75,-204"/>
<text text-anchor="middle" x="997.12" y="-191.45" font-family="Times,serif" font-size="9.00">parent = 0x5ceab18f8430</text>
<polyline fill="none" stroke="black" points="1050.5,-185.5 1050.5,-204"/>
<text text-anchor="middle" x="1078.75" y="-191.45" font-family="Times,serif" font-size="9.00">right = (nil)</text>
</g>
<!-- node_0x5ceab18f8430&#45;&gt;node_0x5ceab18f83f0 -->
<g id="edge8" class="edge">
<title>node_0x5ceab18f8430&#45;&gt;node_0x5ceab18f83f0</title>
<path fill="none" stroke="black" d="M949,-277.6C949,-269.81 949,-261.17 949,-252.84"/>
<polygon fill="black" stroke="black" points="952.5,-252.9 949,-242.9 945.5,-252.9 952.5,-252.9"/>
</g>
<!-- node_0x5ceab18f8670 -->
<g id="node11" class="node">
<title>node_0x5ceab18f8670</title>
<polygon fill="#bdef9e" stroke="black" points="1136,-185.5 1136,-241 1542,-241 1542,-185.5 1136,-185.5"/>
<text text-anchor="middle" x="1339" y="-228.45" font-family="Times,serif" font-size="9.00">13 (прилетел_во_Внуково)</text>
<polyline fill="none" stroke="black" points="1136,-222.5 1542,-222.5"/>
<text text-anchor="middle" x="1339" y="-209.95" font-family="Times,serif" font-size="9.00">type = 3 (KEYWORD)</text>
<polyline fill="none" stroke="black" points="1136,-204 1542,-204"/>
<text text-anchor="middle" x="1184.12" y="-191.45" font-family="Times,serif" font-size="9.00">left = 0x5ceab18f8630</text>
<polyline fill="none" stroke="black" points="1232.25,-185.5 1232.25,-204"/>
<text text-anchor="middle" x="1283.38" y="-191.45" font-family="Times,serif" font-size="9.00">node = 0x5ceab18f8670</text>
<polyline fill="none" stroke="black" points="1334.5,-185.5 1334.5,-204"/>
<text text-anchor="middle" x="1387.88" y="-191.45" font-family="Times,serif" font-size="9.00">parent = 0x5ceab18f8470</text>
<polyline fill="none" stroke="black" points="1441.25,-185.5 1441.25,-204"/>
<text text-anchor="middle" x="1491.62" y="-191.45" font-family="Times,serif" font-size="9.00">right = 0x5ceab18f8570</text>
</g>
<!-- node_0x5ceab18f8470&#45;&gt;node_0x5ceab18f8670 -->
<g id="edge10" class="edge">
<title>node_0x5ceab18f8470&#45;&gt;node_0x5ceab18f8670</title>
<path fill="none" stroke="black" d="M1346.7,-277.6C1345.74,-269.72 1344.68,-260.97 1343.66,-252.55"/>
<polygon fill="black" stroke="black" points="1347.16,-252.39 1342.48,-242.89 1340.21,-253.24 1347.16,-252.39"/>
</g>
<!-- node_0x5ceab18f86b0 -->
<g id="node16" class="node">
<title>node_0x5ceab18f86b0</title>
<polygon fill="#bdef9e" stroke="black" points="1560,-185.5 1560,-241 1966,-241 1966,-185.5 1560,-185.5"/>
<text text-anchor="middle" x="1763" y="-228.45" font-family="Times,serif" font-size="9.00">41 (\n)</text>
<polyline fill="none" stroke="black" points="1560,-222.5 1966,-222.5"/>
<text text-anchor="middle" x="1763" y="-209.95" font-family="Times,serif" font-size="9.00">type = 3 (KEYWORD)</text>
<polyline fill="none" stroke="black" points="1560,-204 1966,-204"/>
<text text-anchor="middle" x="1608.12" y="-191.45" font-family="Times,serif" font-size="9.00">left = 0x5ceab18f8870</text>
<polyline fill="none" stroke="black" points="1656.25,-185.5 1656.25,-204"/>
<text text-anchor="middle" x="1707.38" y="-191.45" font-family="Times,serif" font-size="9.00">node = 0x5ceab18f86b0</text>
<polyline fill="none" stroke="black" points="1758.5,-185.5 1758.5,-204"/>
<text text-anchor="middle" x="1811.88" y="-191.45" font-family="Times,serif" font-size="9.00">parent = 0x5ceab18f8470</text>
<polyline fill="none" stroke="black" points="1865.25,-185.5 1865.25,-204"/>
<text text-anchor="middle" x="1915.62" y="-191.45" font-family="Times,serif" font-size="9.00">right = 0x5ceab18f88b0</text>
</g>
<!-- node_0x5ceab18f8470&#45;&gt;node_0x5ceab18f86b0 -->
<g id="edge15" class="edge">
<title>node_0x5ceab18f8470&#45;&gt;node_0x5ceab18f86b0</title>
<path fill="none" stroke="black" d="M1474.19,-277.54C1522.67,-266.91 1578.38,-254.7 1627.86,-243.86"/>
<polygon fill="black" stroke="black" points="1628.48,-247.31 1637.5,-241.75 1626.98,-240.47 1628.48,-247.31"/>
</g>
<!-- node_0x5ceab18f8630 -->
<g id="node12" class="node">
<title>node_0x5ceab18f8630</title>
<polygon fill="#bdef9e" stroke="black" points="773.75,-93 773.75,-148.5 1178.25,-148.5 1178.25,-93 773.75,-93"/>
<text text-anchor="middle" x="976" y="-135.95" font-family="Times,serif" font-size="9.00">24 (дозаправить_в_небе)</text>
<polyline fill="none" stroke="black" points="773.75,-130 1178.25,-130"/>
<text text-anchor="middle" x="976" y="-117.45" font-family="Times,serif" font-size="9.00">type = 3 (KEYWORD)</text>
<polyline fill="none" stroke="black" points="773.75,-111.5 1178.25,-111.5"/>
<text text-anchor="middle" x="821.88" y="-98.95" font-family="Times,serif" font-size="9.00">left = 0x5ceab18f85b0</text>
<polyline fill="none" stroke="black" points="870,-93 870,-111.5"/>
<text text-anchor="middle" x="921.12" y="-98.95" font-family="Times,serif" font-size="9.00">node = 0x5ceab18f8630</text>
<polyline fill="none" stroke="black" points="972.25,-93 972.25,-111.5"/>
<text text-anchor="middle" x="1025.62" y="-98.95" font-family="Times,serif" font-size="9.00">parent = 0x5ceab18f8670</text>
<polyline fill="none" stroke="black" points="1079,-93 1079,-111.5"/>
<text text-anchor="middle" x="1128.62" y="-98.95" font-family="Times,serif" font-size="9.00">right = 0x5ceab18f85f0</text>
</g>
<!-- node_0x5ceab18f8670&#45;&gt;node_0x5ceab18f8630 -->
<g id="edge11" class="edge">
<title>node_0x5ceab18f8670&#45;&gt;node_0x5ceab18f8630</title>
<path fill="none" stroke="black" d="M1230.09,-185.1C1187.92,-174.58 1139.49,-162.51 1096.3,-151.74"/>
<polygon fill="black" stroke="black" points="1097.17,-148.35 1086.62,-149.33 1095.47,-155.14 1097.17,-148.35"/>
</g>
<!-- node_0x5ceab18f8570 -->
<g id="node15" class="node">
<title>node_0x5ceab18f8570</title>
<polygon fill="#f0ff4f" stroke="black" points="1196.25,-93 1196.25,-148.5 1513.75,-148.5 1513.75,-93 1196.25,-93"/>
<text text-anchor="middle" x="1355" y="-135.95" font-family="Times,serif" font-size="9.00">0 (Трансаэро)</text>
<polyline fill="none" stroke="black" points="1196.25,-130 1513.75,-130"/>
<text text-anchor="middle" x="1355" y="-117.45" font-family="Times,serif" font-size="9.00">type = 2 (IDENTIFIER)</text>
<polyline fill="none" stroke="black" points="1196.25,-111.5 1513.75,-111.5"/>
<text text-anchor="middle" x="1222.25" y="-98.95" font-family="Times,serif" font-size="9.00">left = (nil)</text>
<polyline fill="none" stroke="black" points="1248.25,-93 1248.25,-111.5"/>
<text text-anchor="middle" x="1299.38" y="-98.95" font-family="Times,serif" font-size="9.00">node = 0x5ceab18f8570</text>
<polyline fill="none" stroke="black" points="1350.5,-93 1350.5,-111.5"/>
<text text-anchor="middle" x="1403.88" y="-98.95" font-family="Times,serif" font-size="9.00">parent = 0x5ceab18f8670</text>
<polyline fill="none" stroke="black" points="1457.25,-93 1457.25,-111.5"/>
<text text-anchor="middle" x="1485.5" y="-98.95" font-family="Times,serif" font-size="9.00">right = (nil)</text>
</g>
<!-- node_0x5ceab18f8670&#45;&gt;node_0x5ceab18f8570 -->
<g id="edge14" class="edge">
<title>node_0x5ceab18f8670&#45;&gt;node_0x5ceab18f8570</title>
<path fill="none" stroke="black" d="M1343.8,-185.1C1345.19,-177.22 1346.74,-168.47 1348.23,-160.05"/>
<polygon fill="black" stroke="black" points="1351.64,-160.83 1349.94,-150.37 1344.75,-159.61 1351.64,-160.83"/>
</g>
<!-- node_0x5ceab18f85b0 -->
<g id="node13" class="node">
<title>node_0x5ceab18f85b0</title>
<polygon fill="#f0ff4f" stroke="black" points="650.25,-0.5 650.25,-56 967.75,-56 967.75,-0.5 650.25,-0.5"/>
<text text-anchor="middle" x="809" y="-43.45" font-family="Times,serif" font-size="9.00">0 (Трансаэро)</text>
<polyline fill="none" stroke="black" points="650.25,-37.5 967.75,-37.5"/>
<text text-anchor="middle" x="809" y="-24.95" font-family="Times,serif" font-size="9.00">type = 2 (IDENTIFIER)</text>
<polyline fill="none" stroke="black" points="650.25,-19 967.75,-19"/>
<text text-anchor="middle" x="676.25" y="-6.45" font-family="Times,serif" font-size="9.00">left = (nil)</text>
<polyline fill="none" stroke="black" points="702.25,-0.5 702.25,-19"/>
<text text-anchor="middle" x="753.38" y="-6.45" font-family="Times,serif" font-size="9.00">node = 0x5ceab18f85b0</text>
<polyline fill="none" stroke="black" points="804.5,-0.5 804.5,-19"/>
<text text-anchor="middle" x="857.88" y="-6.45" font-family="Times,serif" font-size="9.00">parent = 0x5ceab18f8630</text>
<polyline fill="none" stroke="black" points="911.25,-0.5 911.25,-19"/>
<text text-anchor="middle" x="939.5" y="-6.45" font-family="Times,serif" font-size="9.00">right = (nil)</text>
</g>
<!-- node_0x5ceab18f8630&#45;&gt;node_0x5ceab18f85b0 -->
<g id="edge12" class="edge">
<title>node_0x5ceab18f8630&#45;&gt;node_0x5ceab18f85b0</title>
<path fill="none" stroke="black" d="M925.89,-92.6C907.98,-82.89 887.61,-71.85 868.94,-61.73"/>
<polygon fill="black" stroke="black" points="870.86,-58.79 860.4,-57.1 867.53,-64.95 870.86,-58.79"/>
</g>
<!-- node_0x5ceab18f85f0 -->
<g id="node14" class="node">
<title>node_0x5ceab18f85f0</title>
<polygon fill="#1ac6d9" stroke="black" points="986,-0.5 986,-56 1302,-56 1302,-0.5 986,-0.5"/>
<text text-anchor="middle" x="1144" y="-43.45" font-family="Times,serif" font-size="9.00">5</text>
<polyline fill="none" stroke="black" points="986,-37.5 1302,-37.5"/>
<text text-anchor="middle" x="1144" y="-24.95" font-family="Times,serif" font-size="9.00">type = 1 (CONSTANT)</text>
<polyline fill="none" stroke="black" points="986,-19 1302,-19"/>
<text text-anchor="middle" x="1012" y="-6.45" font-family="Times,serif" font-size="9.00">left = (nil)</text>
<polyline fill="none" stroke="black" points="1038,-0.5 1038,-19"/>
<text text-anchor="middle" x="1088.38" y="-6.45" font-family="Times,serif" font-size="9.00">node = 0x5ceab18f85f0</text>
<polyline fill="none" stroke="black" points="1138.75,-0.5 1138.75,-19"/>
<text text-anchor="middle" x="1192.12" y="-6.45" font-family="Times,serif" font-size="9.00">parent = 0x5ceab18f8630</text>
<polyline fill="none" stroke="black" points="1245.5,-0.5 1245.5,-19"/>
<text text-anchor="middle" x="1273.75" y="-6.45" font-family="Times,serif" font-size="9.00">right = (nil)</text>
</g>
<!-- node_0x5ceab18f8630&#45;&gt;node_0x5ceab18f85f0 -->
<g id="edge13" class="edge">
<title>node_0x5ceab18f8630&#45;&gt;node_0x5ceab18f85f0</title>
<path fill="none" stroke="black" d="M1026.41,-92.6C1044.43,-82.89 1064.92,-71.85 1083.7,-61.73"/>
<polygon fill="black" stroke="black" points="1085.15,-64.93 1092.3,-57.1 1081.83,-58.76 1085.15,-64.93"/>
</g>
<!-- node_0x5ceab18f8870 -->
<g id="node17" class="node">
<title>node_0x5ceab18f8870</title>
<polygon fill="#bdef9e" stroke="black" points="1565.12,-93 1565.12,-148.5 1926.88,-148.5 1926.88,-93 1565.12,-93"/>
<text text-anchor="middle" x="1746" y="-135.95" font-family="Times,serif" font-size="9.00">62 (починить_двигатель)</text>
<polyline fill="none" stroke="black" points="1565.12,-130 1926.88,-130"/>
<text text-anchor="middle" x="1746" y="-117.45" font-family="Times,serif" font-size="9.00">type = 3 (KEYWORD)</text>
<polyline fill="none" stroke="black" points="1565.12,-111.5 1926.88,-111.5"/>
<text text-anchor="middle" x="1591.12" y="-98.95" font-family="Times,serif" font-size="9.00">left = (nil)</text>
<polyline fill="none" stroke="black" points="1617.12,-93 1617.12,-111.5"/>
<text text-anchor="middle" x="1668.25" y="-98.95" font-family="Times,serif" font-size="9.00">node = 0x5ceab18f8870</text>
<polyline fill="none" stroke="black" points="1719.38,-93 1719.38,-111.5"/>
<text text-anchor="middle" x="1772.75" y="-98.95" font-family="Times,serif" font-size="9.00">parent = 0x5ceab18f86b0</text>
<polyline fill="none" stroke="black" points="1826.12,-93 1826.12,-111.5"/>
<text text-anchor="middle" x="1876.5" y="-98.95" font-family="Times,serif" font-size="9.00">right = 0x5ceab18f8830</text>
</g>
<!-- node_0x5ceab18f86b0&#45;&gt;node_0x5ceab18f8870 -->
<g id="edge16" class="edge">
<title>node_0x5ceab18f86b0&#45;&gt;node_0x5ceab18f8870</title>
<path fill="none" stroke="black" d="M1757.9,-185.1C1756.42,-177.22 1754.78,-168.47 1753.19,-160.05"/>
<polygon fill="black" stroke="black" points="1756.66,-159.55 1751.38,-150.37 1749.78,-160.85 1756.66,-159.55"/>
</g>
<!-- node_0x5ceab18f88b0 -->
<g id="node19" class="node">
<title>node_0x5ceab18f88b0</title>
<polygon fill="#bdef9e" stroke="black" points="1945.25,-93 1945.25,-148.5 2262.75,-148.5 2262.75,-93 1945.25,-93"/>
<text text-anchor="middle" x="2104" y="-135.95" font-family="Times,serif" font-size="9.00">41 (\n)</text>
<polyline fill="none" stroke="black" points="1945.25,-130 2262.75,-130"/>
<text text-anchor="middle" x="2104" y="-117.45" font-family="Times,serif" font-size="9.00">type = 3 (KEYWORD)</text>
<polyline fill="none" stroke="black" points="1945.25,-111.5 2262.75,-111.5"/>
<text text-anchor="middle" x="1971.25" y="-98.95" font-family="Times,serif" font-size="9.00">left = (nil)</text>
<polyline fill="none" stroke="black" points="1997.25,-93 1997.25,-111.5"/>
<text text-anchor="middle" x="2048.38" y="-98.95" font-family="Times,serif" font-size="9.00">node = 0x5ceab18f88b0</text>
<polyline fill="none" stroke="black" points="2099.5,-93 2099.5,-111.5"/>
<text text-anchor="middle" x="2152.88" y="-98.95" font-family="Times,serif" font-size="9.00">parent = 0x5ceab18f86b0</text>
<polyline fill="none" stroke="black" points="2206.25,-93 2206.25,-111.5"/>
<text text-anchor="middle" x="2234.5" y="-98.95" font-family="Times,serif" font-size="9.00">right = (nil)</text>
</g>
<!-- node_0x5ceab18f86b0&#45;&gt;node_0x5ceab18f88b0 -->
<g id="edge18" class="edge">
<title>node_0x5ceab18f86b0&#45;&gt;node_0x5ceab18f88b0</title>
<path fill="none" stroke="black" d="M1865.31,-185.1C1904.76,-174.63 1950.03,-162.61 1990.47,-151.88"/>
<polygon fill="black" stroke="black" points="1991.24,-155.3 2000,-149.35 1989.44,-148.53 1991.24,-155.3"/>
</g>
<!-- node_0x5ceab18f8830 -->
<g id="node18" class="node">
<title>node_0x5ceab18f8830</title>
<polygon fill="#f0ff4f" stroke="black" points="1587.25,-0.5 1587.25,-56 1904.75,-56 1904.75,-0.5 1587.25,-0.5"/>
<text text-anchor="middle" x="1746" y="-43.45" font-family="Times,serif" font-size="9.00">0 (Трансаэро)</text>
<polyline fill="none" stroke="black" points="1587.25,-37.5 1904.75,-37.5"/>
<text text-anchor="middle" x="1746" y="-24.95" font-family="Times,serif" font-size="9.00">type = 2 (IDENTIFIER)</text>
<polyline fill="none" stroke="black" points="1587.25,-19 1904.75,-19"/>
<text text-anchor="middle" x="1613.25" y="-6.45" font-family="Times,serif" font-size="9.00">left = (nil)</text>
<polyline fill="none" stroke="black" points="1639.25,-0.5 1639.25,-19"/>
<text text-anchor="middle" x="1690.38" y="-6.45" font-family="Times,serif" font-size="9.00">node = 0x5ceab18f8830</text>
<polyline fill="none" stroke="black" points="1741.5,-0.5 1741.5,-19"/>
<text text-anchor="middle" x="1794.88" y="-6.45" font-family="Times,serif" font-size="9.00">parent = 0x5ceab18f8870</text>
<polyline fill="none" stroke="black" points="1848.25,-0.5 1848.25,-19"/>
<text text-anchor="middle" x="1876.5" y="-6.45" font-family="Times,serif" font-size="9.00">right = (nil)</text>
</g>
<!-- node_0x5ceab18f8870&#45;&gt;node_0x5ceab18f8830 -->
<g id="edge17" class="edge">
<title>node_0x5ceab18f8870&#45;&gt;node_0x5ceab18f8830</title>
<path fill="none" stroke="black" d="M1746,-92.6C1746,-84.81 1746,-76.17 1746,-67.84"/>
<polygon fill="black" stroke="black" points="1749.5,-67.9 1746,-57.9 1742.5,-67.9 1749.5,-67.9"/>
</g>
</g>
</svg>
