<?xml version="1.0" encoding="UTF-8" standalone="no"?>
<!DOCTYPE svg PUBLIC "-//W3C//DTD SVG 1.1//EN"
 "http://www.w3.org/Graphics/SVG/1.1/DTD/svg11.dtd">
<!-- Generated by graphviz version 12.1.2 (0)
 -->
<!-- Pages: 1 -->
<svg width="1968pt" height="527pt"
 viewBox="0.00 0.00 1968.25 527.00" xmlns="http://www.w3.org/2000/svg" xmlns:xlink="http://www.w3.org/1999/xlink">
<g id="graph0" class="graph" transform="scale(1 1) rotate(0) translate(4 523)">
<polygon fill="white" stroke="none" points="-4,4 -4,-523 1964.25,-523 1964.25,4 -4,4"/>
<!-- node_0x58c14d710b30 -->
<g id="node1" class="node">
<title>node_0x58c14d710b30</title>
<polygon fill="#bdef9e" stroke="black" points="573.75,-463 573.75,-518.5 943.75,-518.5 943.75,-463 573.75,-463"/>
<text text-anchor="middle" x="758.75" y="-505.95" font-family="Times,serif" font-size="9.00">41 (\n)</text>
<polyline fill="none" stroke="black" points="573.75,-500 943.75,-500"/>
<text text-anchor="middle" x="758.75" y="-487.45" font-family="Times,serif" font-size="9.00">type = 3 (KEYWORD)</text>
<polyline fill="none" stroke="black" points="573.75,-481.5 943.75,-481.5"/>
<text text-anchor="middle" x="623.38" y="-468.95" font-family="Times,serif" font-size="9.00">left = 0x58c14d710b70</text>
<polyline fill="none" stroke="black" points="673,-463 673,-481.5"/>
<text text-anchor="middle" x="725.62" y="-468.95" font-family="Times,serif" font-size="9.00">node = 0x58c14d710b30</text>
<polyline fill="none" stroke="black" points="778.25,-463 778.25,-481.5"/>
<text text-anchor="middle" x="809.5" y="-468.95" font-family="Times,serif" font-size="9.00">parent = (nil)</text>
<polyline fill="none" stroke="black" points="840.75,-463 840.75,-481.5"/>
<text text-anchor="middle" x="892.25" y="-468.95" font-family="Times,serif" font-size="9.00">right = 0x58c14d710cb0</text>
</g>
<!-- node_0x58c14d710b70 -->
<g id="node2" class="node">
<title>node_0x58c14d710b70</title>
<polygon fill="#b93cdc" stroke="black" points="333.5,-370.5 333.5,-426 750,-426 750,-370.5 333.5,-370.5"/>
<text text-anchor="middle" x="541.75" y="-413.45" font-family="Times,serif" font-size="9.00">0 (Трансаэро)</text>
<polyline fill="none" stroke="black" points="333.5,-407.5 750,-407.5"/>
<text text-anchor="middle" x="541.75" y="-394.95" font-family="Times,serif" font-size="9.00">type = 6 (VAR_DECLARATION)</text>
<polyline fill="none" stroke="black" points="333.5,-389 750,-389"/>
<text text-anchor="middle" x="383.12" y="-376.45" font-family="Times,serif" font-size="9.00">left = 0x58c14d710bb0</text>
<polyline fill="none" stroke="black" points="432.75,-370.5 432.75,-389"/>
<text text-anchor="middle" x="485.38" y="-376.45" font-family="Times,serif" font-size="9.00">node = 0x58c14d710b70</text>
<polyline fill="none" stroke="black" points="538,-370.5 538,-389"/>
<text text-anchor="middle" x="592.88" y="-376.45" font-family="Times,serif" font-size="9.00">parent = 0x58c14d710b30</text>
<polyline fill="none" stroke="black" points="647.75,-370.5 647.75,-389"/>
<text text-anchor="middle" x="698.88" y="-376.45" font-family="Times,serif" font-size="9.00">right = 0x58c14d710bf0</text>
</g>
<!-- node_0x58c14d710b30&#45;&gt;node_0x58c14d710b70 -->
<g id="edge1" class="edge">
<title>node_0x58c14d710b30&#45;&gt;node_0x58c14d710b70</title>
<path fill="none" stroke="black" d="M693.64,-462.6C669.61,-452.57 642.18,-441.13 617.3,-430.76"/>
<polygon fill="black" stroke="black" points="618.78,-427.59 608.21,-426.97 616.09,-434.05 618.78,-427.59"/>
</g>
<!-- node_0x58c14d710cb0 -->
<g id="node7" class="node">
<title>node_0x58c14d710cb0</title>
<polygon fill="#bdef9e" stroke="black" points="768.25,-370.5 768.25,-426 1183.25,-426 1183.25,-370.5 768.25,-370.5"/>
<text text-anchor="middle" x="975.75" y="-413.45" font-family="Times,serif" font-size="9.00">41 (\n)</text>
<polyline fill="none" stroke="black" points="768.25,-407.5 1183.25,-407.5"/>
<text text-anchor="middle" x="975.75" y="-394.95" font-family="Times,serif" font-size="9.00">type = 3 (KEYWORD)</text>
<polyline fill="none" stroke="black" points="768.25,-389 1183.25,-389"/>
<text text-anchor="middle" x="816.75" y="-376.45" font-family="Times,serif" font-size="9.00">left = 0x58c14d710cf0</text>
<polyline fill="none" stroke="black" points="865.25,-370.5 865.25,-389"/>
<text text-anchor="middle" x="917.5" y="-376.45" font-family="Times,serif" font-size="9.00">node = 0x58c14d710cb0</text>
<polyline fill="none" stroke="black" points="969.75,-370.5 969.75,-389"/>
<text text-anchor="middle" x="1024.62" y="-376.45" font-family="Times,serif" font-size="9.00">parent = 0x58c14d710b30</text>
<polyline fill="none" stroke="black" points="1079.5,-370.5 1079.5,-389"/>
<text text-anchor="middle" x="1131.38" y="-376.45" font-family="Times,serif" font-size="9.00">right = 0x58c14d710d70</text>
</g>
<!-- node_0x58c14d710b30&#45;&gt;node_0x58c14d710cb0 -->
<g id="edge6" class="edge">
<title>node_0x58c14d710b30&#45;&gt;node_0x58c14d710cb0</title>
<path fill="none" stroke="black" d="M823.86,-462.6C847.89,-452.57 875.32,-441.13 900.2,-430.76"/>
<polygon fill="black" stroke="black" points="901.41,-434.05 909.29,-426.97 898.72,-427.59 901.41,-434.05"/>
</g>
<!-- node_0x58c14d710bb0 -->
<g id="node3" class="node">
<title>node_0x58c14d710bb0</title>
<polygon fill="#bdef9e" stroke="black" points="0,-278 0,-333.5 323.5,-333.5 323.5,-278 0,-278"/>
<text text-anchor="middle" x="161.75" y="-320.95" font-family="Times,serif" font-size="9.00">51 (борт_компании)</text>
<polyline fill="none" stroke="black" points="0,-315 323.5,-315"/>
<text text-anchor="middle" x="161.75" y="-302.45" font-family="Times,serif" font-size="9.00">type = 3 (KEYWORD)</text>
<polyline fill="none" stroke="black" points="0,-296.5 323.5,-296.5"/>
<text text-anchor="middle" x="26" y="-283.95" font-family="Times,serif" font-size="9.00">left = (nil)</text>
<polyline fill="none" stroke="black" points="52,-278 52,-296.5"/>
<text text-anchor="middle" x="104.62" y="-283.95" font-family="Times,serif" font-size="9.00">node = 0x58c14d710bb0</text>
<polyline fill="none" stroke="black" points="157.25,-278 157.25,-296.5"/>
<text text-anchor="middle" x="212.12" y="-283.95" font-family="Times,serif" font-size="9.00">parent = 0x58c14d710b70</text>
<polyline fill="none" stroke="black" points="267,-278 267,-296.5"/>
<text text-anchor="middle" x="295.25" y="-283.95" font-family="Times,serif" font-size="9.00">right = (nil)</text>
</g>
<!-- node_0x58c14d710b70&#45;&gt;node_0x58c14d710bb0 -->
<g id="edge2" class="edge">
<title>node_0x58c14d710b70&#45;&gt;node_0x58c14d710bb0</title>
<path fill="none" stroke="black" d="M427.48,-370.04C383.16,-359.48 332.26,-347.36 286.95,-336.57"/>
<polygon fill="black" stroke="black" points="287.87,-333.19 277.34,-334.28 286.25,-340 287.87,-333.19"/>
</g>
<!-- node_0x58c14d710bf0 -->
<g id="node4" class="node">
<title>node_0x58c14d710bf0</title>
<polygon fill="#bdef9e" stroke="black" points="341.25,-278 341.25,-333.5 756.25,-333.5 756.25,-278 341.25,-278"/>
<text text-anchor="middle" x="548.75" y="-320.95" font-family="Times,serif" font-size="9.00">13 (прилетел_во_Внуково)</text>
<polyline fill="none" stroke="black" points="341.25,-315 756.25,-315"/>
<text text-anchor="middle" x="548.75" y="-302.45" font-family="Times,serif" font-size="9.00">type = 3 (KEYWORD)</text>
<polyline fill="none" stroke="black" points="341.25,-296.5 756.25,-296.5"/>
<text text-anchor="middle" x="390.5" y="-283.95" font-family="Times,serif" font-size="9.00">left = 0x58c14d710c30</text>
<polyline fill="none" stroke="black" points="439.75,-278 439.75,-296.5"/>
<text text-anchor="middle" x="491.62" y="-283.95" font-family="Times,serif" font-size="9.00">node = 0x58c14d710bf0</text>
<polyline fill="none" stroke="black" points="543.5,-278 543.5,-296.5"/>
<text text-anchor="middle" x="598.38" y="-283.95" font-family="Times,serif" font-size="9.00">parent = 0x58c14d710b70</text>
<polyline fill="none" stroke="black" points="653.25,-278 653.25,-296.5"/>
<text text-anchor="middle" x="704.75" y="-283.95" font-family="Times,serif" font-size="9.00">right = 0x58c14d710c70</text>
</g>
<!-- node_0x58c14d710b70&#45;&gt;node_0x58c14d710bf0 -->
<g id="edge3" class="edge">
<title>node_0x58c14d710b70&#45;&gt;node_0x58c14d710bf0</title>
<path fill="none" stroke="black" d="M543.85,-370.1C544.45,-362.31 545.12,-353.67 545.77,-345.34"/>
<polygon fill="black" stroke="black" points="549.25,-345.63 546.53,-335.39 542.27,-345.09 549.25,-345.63"/>
</g>
<!-- node_0x58c14d710c30 -->
<g id="node5" class="node">
<title>node_0x58c14d710c30</title>
<polygon fill="#bdef9e" stroke="black" points="90.12,-185.5 90.12,-241 411.38,-241 411.38,-185.5 90.12,-185.5"/>
<text text-anchor="middle" x="250.75" y="-228.45" font-family="Times,serif" font-size="9.00">61 (осмотреть_на_дефекты)</text>
<polyline fill="none" stroke="black" points="90.12,-222.5 411.38,-222.5"/>
<text text-anchor="middle" x="250.75" y="-209.95" font-family="Times,serif" font-size="9.00">type = 3 (KEYWORD)</text>
<polyline fill="none" stroke="black" points="90.12,-204 411.38,-204"/>
<text text-anchor="middle" x="116.12" y="-191.45" font-family="Times,serif" font-size="9.00">left = (nil)</text>
<polyline fill="none" stroke="black" points="142.12,-185.5 142.12,-204"/>
<text text-anchor="middle" x="194.38" y="-191.45" font-family="Times,serif" font-size="9.00">node = 0x58c14d710c30</text>
<polyline fill="none" stroke="black" points="246.62,-185.5 246.62,-204"/>
<text text-anchor="middle" x="300.75" y="-191.45" font-family="Times,serif" font-size="9.00">parent = 0x58c14d710bf0</text>
<polyline fill="none" stroke="black" points="354.88,-185.5 354.88,-204"/>
<text text-anchor="middle" x="383.12" y="-191.45" font-family="Times,serif" font-size="9.00">right = (nil)</text>
</g>
<!-- node_0x58c14d710bf0&#45;&gt;node_0x58c14d710c30 -->
<g id="edge4" class="edge">
<title>node_0x58c14d710bf0&#45;&gt;node_0x58c14d710c30</title>
<path fill="none" stroke="black" d="M459.34,-277.6C425.24,-267.24 386.15,-255.37 351.09,-244.72"/>
<polygon fill="black" stroke="black" points="352.39,-241.46 341.8,-241.9 350.35,-248.16 352.39,-241.46"/>
</g>
<!-- node_0x58c14d710c70 -->
<g id="node6" class="node">
<title>node_0x58c14d710c70</title>
<polygon fill="#f0ff4f" stroke="black" points="429.12,-185.5 429.12,-241 750.38,-241 750.38,-185.5 429.12,-185.5"/>
<text text-anchor="middle" x="589.75" y="-228.45" font-family="Times,serif" font-size="9.00">0 (Трансаэро)</text>
<polyline fill="none" stroke="black" points="429.12,-222.5 750.38,-222.5"/>
<text text-anchor="middle" x="589.75" y="-209.95" font-family="Times,serif" font-size="9.00">type = 2 (IDENTIFIER)</text>
<polyline fill="none" stroke="black" points="429.12,-204 750.38,-204"/>
<text text-anchor="middle" x="455.12" y="-191.45" font-family="Times,serif" font-size="9.00">left = (nil)</text>
<polyline fill="none" stroke="black" points="481.12,-185.5 481.12,-204"/>
<text text-anchor="middle" x="533.38" y="-191.45" font-family="Times,serif" font-size="9.00">node = 0x58c14d710c70</text>
<polyline fill="none" stroke="black" points="585.62,-185.5 585.62,-204"/>
<text text-anchor="middle" x="639.75" y="-191.45" font-family="Times,serif" font-size="9.00">parent = 0x58c14d710bf0</text>
<polyline fill="none" stroke="black" points="693.88,-185.5 693.88,-204"/>
<text text-anchor="middle" x="722.12" y="-191.45" font-family="Times,serif" font-size="9.00">right = (nil)</text>
</g>
<!-- node_0x58c14d710bf0&#45;&gt;node_0x58c14d710c70 -->
<g id="edge5" class="edge">
<title>node_0x58c14d710bf0&#45;&gt;node_0x58c14d710c70</title>
<path fill="none" stroke="black" d="M561.05,-277.6C564.74,-269.45 568.85,-260.37 572.79,-251.69"/>
<polygon fill="black" stroke="black" points="575.89,-253.32 576.83,-242.76 569.52,-250.43 575.89,-253.32"/>
</g>
<!-- node_0x58c14d710cf0 -->
<g id="node8" class="node">
<title>node_0x58c14d710cf0</title>
<polygon fill="#bdef9e" stroke="black" points="785.88,-278 785.88,-333.5 1153.62,-333.5 1153.62,-278 785.88,-278"/>
<text text-anchor="middle" x="969.75" y="-320.95" font-family="Times,serif" font-size="9.00">62 (починить_двигатель)</text>
<polyline fill="none" stroke="black" points="785.88,-315 1153.62,-315"/>
<text text-anchor="middle" x="969.75" y="-302.45" font-family="Times,serif" font-size="9.00">type = 3 (KEYWORD)</text>
<polyline fill="none" stroke="black" points="785.88,-296.5 1153.62,-296.5"/>
<text text-anchor="middle" x="811.88" y="-283.95" font-family="Times,serif" font-size="9.00">left = (nil)</text>
<polyline fill="none" stroke="black" points="837.88,-278 837.88,-296.5"/>
<text text-anchor="middle" x="889.38" y="-283.95" font-family="Times,serif" font-size="9.00">node = 0x58c14d710cf0</text>
<polyline fill="none" stroke="black" points="940.88,-278 940.88,-296.5"/>
<text text-anchor="middle" x="995.38" y="-283.95" font-family="Times,serif" font-size="9.00">parent = 0x58c14d710cb0</text>
<polyline fill="none" stroke="black" points="1049.88,-278 1049.88,-296.5"/>
<text text-anchor="middle" x="1101.75" y="-283.95" font-family="Times,serif" font-size="9.00">right = 0x58c14d710d30</text>
</g>
<!-- node_0x58c14d710cb0&#45;&gt;node_0x58c14d710cf0 -->
<g id="edge7" class="edge">
<title>node_0x58c14d710cb0&#45;&gt;node_0x58c14d710cf0</title>
<path fill="none" stroke="black" d="M973.95,-370.1C973.43,-362.31 972.86,-353.67 972.31,-345.34"/>
<polygon fill="black" stroke="black" points="975.8,-345.14 971.65,-335.39 968.82,-345.6 975.8,-345.14"/>
</g>
<!-- node_0x58c14d710d70 -->
<g id="node10" class="node">
<title>node_0x58c14d710d70</title>
<polygon fill="#bdef9e" stroke="black" points="1171.25,-278 1171.25,-333.5 1586.25,-333.5 1586.25,-278 1171.25,-278"/>
<text text-anchor="middle" x="1378.75" y="-320.95" font-family="Times,serif" font-size="9.00">41 (\n)</text>
<polyline fill="none" stroke="black" points="1171.25,-315 1586.25,-315"/>
<text text-anchor="middle" x="1378.75" y="-302.45" font-family="Times,serif" font-size="9.00">type = 3 (KEYWORD)</text>
<polyline fill="none" stroke="black" points="1171.25,-296.5 1586.25,-296.5"/>
<text text-anchor="middle" x="1220.88" y="-283.95" font-family="Times,serif" font-size="9.00">left = 0x58c14d710db0</text>
<polyline fill="none" stroke="black" points="1270.5,-278 1270.5,-296.5"/>
<text text-anchor="middle" x="1323.12" y="-283.95" font-family="Times,serif" font-size="9.00">node = 0x58c14d710d70</text>
<polyline fill="none" stroke="black" points="1375.75,-278 1375.75,-296.5"/>
<text text-anchor="middle" x="1430.25" y="-283.95" font-family="Times,serif" font-size="9.00">parent = 0x58c14d710cb0</text>
<polyline fill="none" stroke="black" points="1484.75,-278 1484.75,-296.5"/>
<text text-anchor="middle" x="1535.5" y="-283.95" font-family="Times,serif" font-size="9.00">right = 0x58c14d710ef0</text>
</g>
<!-- node_0x58c14d710cb0&#45;&gt;node_0x58c14d710d70 -->
<g id="edge9" class="edge">
<title>node_0x58c14d710cb0&#45;&gt;node_0x58c14d710d70</title>
<path fill="none" stroke="black" d="M1096.94,-370.04C1144.14,-359.44 1198.38,-347.26 1246.58,-336.43"/>
<polygon fill="black" stroke="black" points="1247.26,-339.86 1256.25,-334.26 1245.73,-333.03 1247.26,-339.86"/>
</g>
<!-- node_0x58c14d710d30 -->
<g id="node9" class="node">
<title>node_0x58c14d710d30</title>
<polygon fill="#f0ff4f" stroke="black" points="809.12,-185.5 809.12,-241 1130.38,-241 1130.38,-185.5 809.12,-185.5"/>
<text text-anchor="middle" x="969.75" y="-228.45" font-family="Times,serif" font-size="9.00">0 (Трансаэро)</text>
<polyline fill="none" stroke="black" points="809.12,-222.5 1130.38,-222.5"/>
<text text-anchor="middle" x="969.75" y="-209.95" font-family="Times,serif" font-size="9.00">type = 2 (IDENTIFIER)</text>
<polyline fill="none" stroke="black" points="809.12,-204 1130.38,-204"/>
<text text-anchor="middle" x="835.12" y="-191.45" font-family="Times,serif" font-size="9.00">left = (nil)</text>
<polyline fill="none" stroke="black" points="861.12,-185.5 861.12,-204"/>
<text text-anchor="middle" x="913.75" y="-191.45" font-family="Times,serif" font-size="9.00">node = 0x58c14d710d30</text>
<polyline fill="none" stroke="black" points="966.38,-185.5 966.38,-204"/>
<text text-anchor="middle" x="1020.12" y="-191.45" font-family="Times,serif" font-size="9.00">parent = 0x58c14d710cf0</text>
<polyline fill="none" stroke="black" points="1073.88,-185.5 1073.88,-204"/>
<text text-anchor="middle" x="1102.12" y="-191.45" font-family="Times,serif" font-size="9.00">right = (nil)</text>
</g>
<!-- node_0x58c14d710cf0&#45;&gt;node_0x58c14d710d30 -->
<g id="edge8" class="edge">
<title>node_0x58c14d710cf0&#45;&gt;node_0x58c14d710d30</title>
<path fill="none" stroke="black" d="M969.75,-277.6C969.75,-269.81 969.75,-261.17 969.75,-252.84"/>
<polygon fill="black" stroke="black" points="973.25,-252.9 969.75,-242.9 966.25,-252.9 973.25,-252.9"/>
</g>
<!-- node_0x58c14d710db0 -->
<g id="node11" class="node">
<title>node_0x58c14d710db0</title>
<polygon fill="#bdef9e" stroke="black" points="1159.88,-185.5 1159.88,-241 1575.62,-241 1575.62,-185.5 1159.88,-185.5"/>
<text text-anchor="middle" x="1367.75" y="-228.45" font-family="Times,serif" font-size="9.00">13 (прилетел_во_Внуково)</text>
<polyline fill="none" stroke="black" points="1159.88,-222.5 1575.62,-222.5"/>
<text text-anchor="middle" x="1367.75" y="-209.95" font-family="Times,serif" font-size="9.00">type = 3 (KEYWORD)</text>
<polyline fill="none" stroke="black" points="1159.88,-204 1575.62,-204"/>
<text text-anchor="middle" x="1208.75" y="-191.45" font-family="Times,serif" font-size="9.00">left = 0x58c14d710df0</text>
<polyline fill="none" stroke="black" points="1257.62,-185.5 1257.62,-204"/>
<text text-anchor="middle" x="1310.25" y="-191.45" font-family="Times,serif" font-size="9.00">node = 0x58c14d710db0</text>
<polyline fill="none" stroke="black" points="1362.88,-185.5 1362.88,-204"/>
<text text-anchor="middle" x="1417.75" y="-191.45" font-family="Times,serif" font-size="9.00">parent = 0x58c14d710d70</text>
<polyline fill="none" stroke="black" points="1472.62,-185.5 1472.62,-204"/>
<text text-anchor="middle" x="1524.12" y="-191.45" font-family="Times,serif" font-size="9.00">right = 0x58c14d710eb0</text>
</g>
<!-- node_0x58c14d710d70&#45;&gt;node_0x58c14d710db0 -->
<g id="edge10" class="edge">
<title>node_0x58c14d710d70&#45;&gt;node_0x58c14d710db0</title>
<path fill="none" stroke="black" d="M1375.45,-277.6C1374.49,-269.72 1373.43,-260.97 1372.41,-252.55"/>
<polygon fill="black" stroke="black" points="1375.91,-252.39 1371.23,-242.89 1368.96,-253.24 1375.91,-252.39"/>
</g>
<!-- node_0x58c14d710ef0 -->
<g id="node16" class="node">
<title>node_0x58c14d710ef0</title>
<polygon fill="#bdef9e" stroke="black" points="1593.25,-185.5 1593.25,-241 1960.25,-241 1960.25,-185.5 1593.25,-185.5"/>
<text text-anchor="middle" x="1776.75" y="-228.45" font-family="Times,serif" font-size="9.00">41 (\n)</text>
<polyline fill="none" stroke="black" points="1593.25,-222.5 1960.25,-222.5"/>
<text text-anchor="middle" x="1776.75" y="-209.95" font-family="Times,serif" font-size="9.00">type = 3 (KEYWORD)</text>
<polyline fill="none" stroke="black" points="1593.25,-204 1960.25,-204"/>
<text text-anchor="middle" x="1642.12" y="-191.45" font-family="Times,serif" font-size="9.00">left = 0x58c14d710f30</text>
<polyline fill="none" stroke="black" points="1691,-185.5 1691,-204"/>
<text text-anchor="middle" x="1742.5" y="-191.45" font-family="Times,serif" font-size="9.00">node = 0x58c14d710ef0</text>
<polyline fill="none" stroke="black" points="1794,-185.5 1794,-204"/>
<text text-anchor="middle" x="1848.88" y="-191.45" font-family="Times,serif" font-size="9.00">parent = 0x58c14d710d70</text>
<polyline fill="none" stroke="black" points="1903.75,-185.5 1903.75,-204"/>
<text text-anchor="middle" x="1932" y="-191.45" font-family="Times,serif" font-size="9.00">right = (nil)</text>
</g>
<!-- node_0x58c14d710d70&#45;&gt;node_0x58c14d710ef0 -->
<g id="edge15" class="edge">
<title>node_0x58c14d710d70&#45;&gt;node_0x58c14d710ef0</title>
<path fill="none" stroke="black" d="M1498.43,-277.54C1545.05,-266.94 1598.61,-254.76 1646.22,-243.93"/>
<polygon fill="black" stroke="black" points="1646.78,-247.39 1655.76,-241.76 1645.23,-240.57 1646.78,-247.39"/>
</g>
<!-- node_0x58c14d710df0 -->
<g id="node12" class="node">
<title>node_0x58c14d710df0</title>
<polygon fill="#bdef9e" stroke="black" points="796.25,-93 796.25,-148.5 1211.25,-148.5 1211.25,-93 796.25,-93"/>
<text text-anchor="middle" x="1003.75" y="-135.95" font-family="Times,serif" font-size="9.00">24 (дозаправить_в_небе)</text>
<polyline fill="none" stroke="black" points="796.25,-130 1211.25,-130"/>
<text text-anchor="middle" x="1003.75" y="-117.45" font-family="Times,serif" font-size="9.00">type = 3 (KEYWORD)</text>
<polyline fill="none" stroke="black" points="796.25,-111.5 1211.25,-111.5"/>
<text text-anchor="middle" x="845.5" y="-98.95" font-family="Times,serif" font-size="9.00">left = 0x58c14d710e30</text>
<polyline fill="none" stroke="black" points="894.75,-93 894.75,-111.5"/>
<text text-anchor="middle" x="946.62" y="-98.95" font-family="Times,serif" font-size="9.00">node = 0x58c14d710df0</text>
<polyline fill="none" stroke="black" points="998.5,-93 998.5,-111.5"/>
<text text-anchor="middle" x="1053.38" y="-98.95" font-family="Times,serif" font-size="9.00">parent = 0x58c14d710db0</text>
<polyline fill="none" stroke="black" points="1108.25,-93 1108.25,-111.5"/>
<text text-anchor="middle" x="1159.75" y="-98.95" font-family="Times,serif" font-size="9.00">right = 0x58c14d710e70</text>
</g>
<!-- node_0x58c14d710db0&#45;&gt;node_0x58c14d710df0 -->
<g id="edge11" class="edge">
<title>node_0x58c14d710db0&#45;&gt;node_0x58c14d710df0</title>
<path fill="none" stroke="black" d="M1258.54,-185.1C1216.16,-174.56 1167.49,-162.46 1124.11,-151.67"/>
<polygon fill="black" stroke="black" points="1125.22,-148.34 1114.67,-149.33 1123.53,-155.14 1125.22,-148.34"/>
</g>
<!-- node_0x58c14d710eb0 -->
<g id="node15" class="node">
<title>node_0x58c14d710eb0</title>
<polygon fill="#f0ff4f" stroke="black" points="1229.38,-93 1229.38,-148.5 1552.12,-148.5 1552.12,-93 1229.38,-93"/>
<text text-anchor="middle" x="1390.75" y="-135.95" font-family="Times,serif" font-size="9.00">0 (Трансаэро)</text>
<polyline fill="none" stroke="black" points="1229.38,-130 1552.12,-130"/>
<text text-anchor="middle" x="1390.75" y="-117.45" font-family="Times,serif" font-size="9.00">type = 2 (IDENTIFIER)</text>
<polyline fill="none" stroke="black" points="1229.38,-111.5 1552.12,-111.5"/>
<text text-anchor="middle" x="1255.38" y="-98.95" font-family="Times,serif" font-size="9.00">left = (nil)</text>
<polyline fill="none" stroke="black" points="1281.38,-93 1281.38,-111.5"/>
<text text-anchor="middle" x="1333.62" y="-98.95" font-family="Times,serif" font-size="9.00">node = 0x58c14d710eb0</text>
<polyline fill="none" stroke="black" points="1385.88,-93 1385.88,-111.5"/>
<text text-anchor="middle" x="1440.75" y="-98.95" font-family="Times,serif" font-size="9.00">parent = 0x58c14d710db0</text>
<polyline fill="none" stroke="black" points="1495.62,-93 1495.62,-111.5"/>
<text text-anchor="middle" x="1523.88" y="-98.95" font-family="Times,serif" font-size="9.00">right = (nil)</text>
</g>
<!-- node_0x58c14d710db0&#45;&gt;node_0x58c14d710eb0 -->
<g id="edge14" class="edge">
<title>node_0x58c14d710db0&#45;&gt;node_0x58c14d710eb0</title>
<path fill="none" stroke="black" d="M1374.65,-185.1C1376.67,-177.13 1378.93,-168.27 1381.09,-159.76"/>
<polygon fill="black" stroke="black" points="1384.41,-160.9 1383.48,-150.35 1377.63,-159.18 1384.41,-160.9"/>
</g>
<!-- node_0x58c14d710e30 -->
<g id="node13" class="node">
<title>node_0x58c14d710e30</title>
<polygon fill="#f0ff4f" stroke="black" points="674.12,-0.5 674.12,-56 995.38,-56 995.38,-0.5 674.12,-0.5"/>
<text text-anchor="middle" x="834.75" y="-43.45" font-family="Times,serif" font-size="9.00">0 (Трансаэро)</text>
<polyline fill="none" stroke="black" points="674.12,-37.5 995.38,-37.5"/>
<text text-anchor="middle" x="834.75" y="-24.95" font-family="Times,serif" font-size="9.00">type = 2 (IDENTIFIER)</text>
<polyline fill="none" stroke="black" points="674.12,-19 995.38,-19"/>
<text text-anchor="middle" x="700.12" y="-6.45" font-family="Times,serif" font-size="9.00">left = (nil)</text>
<polyline fill="none" stroke="black" points="726.12,-0.5 726.12,-19"/>
<text text-anchor="middle" x="778.38" y="-6.45" font-family="Times,serif" font-size="9.00">node = 0x58c14d710e30</text>
<polyline fill="none" stroke="black" points="830.62,-0.5 830.62,-19"/>
<text text-anchor="middle" x="884.75" y="-6.45" font-family="Times,serif" font-size="9.00">parent = 0x58c14d710df0</text>
<polyline fill="none" stroke="black" points="938.88,-0.5 938.88,-19"/>
<text text-anchor="middle" x="967.12" y="-6.45" font-family="Times,serif" font-size="9.00">right = (nil)</text>
</g>
<!-- node_0x58c14d710df0&#45;&gt;node_0x58c14d710e30 -->
<g id="edge12" class="edge">
<title>node_0x58c14d710df0&#45;&gt;node_0x58c14d710e30</title>
<path fill="none" stroke="black" d="M953.04,-92.6C934.91,-82.89 914.3,-71.85 895.41,-61.73"/>
<polygon fill="black" stroke="black" points="897.22,-58.73 886.75,-57.1 893.92,-64.9 897.22,-58.73"/>
</g>
<!-- node_0x58c14d710e70 -->
<g id="node14" class="node">
<title>node_0x58c14d710e70</title>
<polygon fill="#1ac6d9" stroke="black" points="1013.12,-0.5 1013.12,-56 1334.38,-56 1334.38,-0.5 1013.12,-0.5"/>
<text text-anchor="middle" x="1173.75" y="-43.45" font-family="Times,serif" font-size="9.00">5</text>
<polyline fill="none" stroke="black" points="1013.12,-37.5 1334.38,-37.5"/>
<text text-anchor="middle" x="1173.75" y="-24.95" font-family="Times,serif" font-size="9.00">type = 1 (CONSTANT)</text>
<polyline fill="none" stroke="black" points="1013.12,-19 1334.38,-19"/>
<text text-anchor="middle" x="1039.12" y="-6.45" font-family="Times,serif" font-size="9.00">left = (nil)</text>
<polyline fill="none" stroke="black" points="1065.12,-0.5 1065.12,-19"/>
<text text-anchor="middle" x="1117.38" y="-6.45" font-family="Times,serif" font-size="9.00">node = 0x58c14d710e70</text>
<polyline fill="none" stroke="black" points="1169.62,-0.5 1169.62,-19"/>
<text text-anchor="middle" x="1223.75" y="-6.45" font-family="Times,serif" font-size="9.00">parent = 0x58c14d710df0</text>
<polyline fill="none" stroke="black" points="1277.88,-0.5 1277.88,-19"/>
<text text-anchor="middle" x="1306.12" y="-6.45" font-family="Times,serif" font-size="9.00">right = (nil)</text>
</g>
<!-- node_0x58c14d710df0&#45;&gt;node_0x58c14d710e70 -->
<g id="edge13" class="edge">
<title>node_0x58c14d710df0&#45;&gt;node_0x58c14d710e70</title>
<path fill="none" stroke="black" d="M1054.76,-92.6C1072.99,-82.89 1093.73,-71.85 1112.73,-61.73"/>
<polygon fill="black" stroke="black" points="1114.26,-64.88 1121.44,-57.1 1110.97,-58.7 1114.26,-64.88"/>
</g>
<!-- node_0x58c14d710f30 -->
<g id="node17" class="node">
<title>node_0x58c14d710f30</title>
<polygon fill="#bdef9e" stroke="black" points="1594,-93 1594,-148.5 1959.5,-148.5 1959.5,-93 1594,-93"/>
<text text-anchor="middle" x="1776.75" y="-135.95" font-family="Times,serif" font-size="9.00">62 (починить_двигатель)</text>
<polyline fill="none" stroke="black" points="1594,-130 1959.5,-130"/>
<text text-anchor="middle" x="1776.75" y="-117.45" font-family="Times,serif" font-size="9.00">type = 3 (KEYWORD)</text>
<polyline fill="none" stroke="black" points="1594,-111.5 1959.5,-111.5"/>
<text text-anchor="middle" x="1620" y="-98.95" font-family="Times,serif" font-size="9.00">left = (nil)</text>
<polyline fill="none" stroke="black" points="1646,-93 1646,-111.5"/>
<text text-anchor="middle" x="1697.88" y="-98.95" font-family="Times,serif" font-size="9.00">node = 0x58c14d710f30</text>
<polyline fill="none" stroke="black" points="1749.75,-93 1749.75,-111.5"/>
<text text-anchor="middle" x="1803.5" y="-98.95" font-family="Times,serif" font-size="9.00">parent = 0x58c14d710ef0</text>
<polyline fill="none" stroke="black" points="1857.25,-93 1857.25,-111.5"/>
<text text-anchor="middle" x="1908.38" y="-98.95" font-family="Times,serif" font-size="9.00">right = 0x58c14d710f70</text>
</g>
<!-- node_0x58c14d710ef0&#45;&gt;node_0x58c14d710f30 -->
<g id="edge16" class="edge">
<title>node_0x58c14d710ef0&#45;&gt;node_0x58c14d710f30</title>
<path fill="none" stroke="black" d="M1776.75,-185.1C1776.75,-177.31 1776.75,-168.67 1776.75,-160.34"/>
<polygon fill="black" stroke="black" points="1780.25,-160.4 1776.75,-150.4 1773.25,-160.4 1780.25,-160.4"/>
</g>
<!-- node_0x58c14d710f70 -->
<g id="node18" class="node">
<title>node_0x58c14d710f70</title>
<polygon fill="#f0ff4f" stroke="black" points="1616.5,-0.5 1616.5,-56 1937,-56 1937,-0.5 1616.5,-0.5"/>
<text text-anchor="middle" x="1776.75" y="-43.45" font-family="Times,serif" font-size="9.00">0 (Трансаэро)</text>
<polyline fill="none" stroke="black" points="1616.5,-37.5 1937,-37.5"/>
<text text-anchor="middle" x="1776.75" y="-24.95" font-family="Times,serif" font-size="9.00">type = 2 (IDENTIFIER)</text>
<polyline fill="none" stroke="black" points="1616.5,-19 1937,-19"/>
<text text-anchor="middle" x="1642.5" y="-6.45" font-family="Times,serif" font-size="9.00">left = (nil)</text>
<polyline fill="none" stroke="black" points="1668.5,-0.5 1668.5,-19"/>
<text text-anchor="middle" x="1720.38" y="-6.45" font-family="Times,serif" font-size="9.00">node = 0x58c14d710f70</text>
<polyline fill="none" stroke="black" points="1772.25,-0.5 1772.25,-19"/>
<text text-anchor="middle" x="1826.38" y="-6.45" font-family="Times,serif" font-size="9.00">parent = 0x58c14d710f30</text>
<polyline fill="none" stroke="black" points="1880.5,-0.5 1880.5,-19"/>
<text text-anchor="middle" x="1908.75" y="-6.45" font-family="Times,serif" font-size="9.00">right = (nil)</text>
</g>
<!-- node_0x58c14d710f30&#45;&gt;node_0x58c14d710f70 -->
<g id="edge17" class="edge">
<title>node_0x58c14d710f30&#45;&gt;node_0x58c14d710f70</title>
<path fill="none" stroke="black" d="M1776.75,-92.6C1776.75,-84.81 1776.75,-76.17 1776.75,-67.84"/>
<polygon fill="black" stroke="black" points="1780.25,-67.9 1776.75,-57.9 1773.25,-67.9 1780.25,-67.9"/>
</g>
</g>
</svg>
