<?xml version="1.0" encoding="UTF-8" standalone="no"?>
<!DOCTYPE svg PUBLIC "-//W3C//DTD SVG 1.1//EN"
 "http://www.w3.org/Graphics/SVG/1.1/DTD/svg11.dtd">
<!-- Generated by graphviz version 12.1.2 (0)
 -->
<!-- Pages: 1 -->
<svg width="2384pt" height="805pt"
 viewBox="0.00 0.00 2383.62 804.50" xmlns="http://www.w3.org/2000/svg" xmlns:xlink="http://www.w3.org/1999/xlink">
<g id="graph0" class="graph" transform="scale(1 1) rotate(0) translate(4 800.5)">
<polygon fill="white" stroke="none" points="-4,4 -4,-800.5 2379.62,-800.5 2379.62,4 -4,4"/>
<!-- node_0x5b285359fb30 -->
<g id="node1" class="node">
<title>node_0x5b285359fb30</title>
<polygon fill="#bdef9e" stroke="black" points="571.12,-740.5 571.12,-796 938.88,-796 938.88,-740.5 571.12,-740.5"/>
<text text-anchor="middle" x="755" y="-783.45" font-family="Times,serif" font-size="9.00">41 (\n)</text>
<polyline fill="none" stroke="black" points="571.12,-777.5 938.88,-777.5"/>
<text text-anchor="middle" x="755" y="-764.95" font-family="Times,serif" font-size="9.00">type = 3 (KEYWORD)</text>
<polyline fill="none" stroke="black" points="571.12,-759 938.88,-759"/>
<text text-anchor="middle" x="620.38" y="-746.45" font-family="Times,serif" font-size="9.00">left = 0x5b285359fb70</text>
<polyline fill="none" stroke="black" points="669.62,-740.5 669.62,-759"/>
<text text-anchor="middle" x="721.88" y="-746.45" font-family="Times,serif" font-size="9.00">node = 0x5b285359fb30</text>
<polyline fill="none" stroke="black" points="774.12,-740.5 774.12,-759"/>
<text text-anchor="middle" x="805.38" y="-746.45" font-family="Times,serif" font-size="9.00">parent = (nil)</text>
<polyline fill="none" stroke="black" points="836.62,-740.5 836.62,-759"/>
<text text-anchor="middle" x="887.75" y="-746.45" font-family="Times,serif" font-size="9.00">right = 0x5b285359fcb0</text>
</g>
<!-- node_0x5b285359fb70 -->
<g id="node2" class="node">
<title>node_0x5b285359fb70</title>
<polygon fill="#b93cdc" stroke="black" points="333.25,-648 333.25,-703.5 746.75,-703.5 746.75,-648 333.25,-648"/>
<text text-anchor="middle" x="540" y="-690.95" font-family="Times,serif" font-size="9.00">0 (Трансаэро)</text>
<polyline fill="none" stroke="black" points="333.25,-685 746.75,-685"/>
<text text-anchor="middle" x="540" y="-672.45" font-family="Times,serif" font-size="9.00">type = 6 (VAR_DECLARATION)</text>
<polyline fill="none" stroke="black" points="333.25,-666.5 746.75,-666.5"/>
<text text-anchor="middle" x="382.5" y="-653.95" font-family="Times,serif" font-size="9.00">left = 0x5b285359fbb0</text>
<polyline fill="none" stroke="black" points="431.75,-648 431.75,-666.5"/>
<text text-anchor="middle" x="484" y="-653.95" font-family="Times,serif" font-size="9.00">node = 0x5b285359fb70</text>
<polyline fill="none" stroke="black" points="536.25,-648 536.25,-666.5"/>
<text text-anchor="middle" x="590.75" y="-653.95" font-family="Times,serif" font-size="9.00">parent = 0x5b285359fb30</text>
<polyline fill="none" stroke="black" points="645.25,-648 645.25,-666.5"/>
<text text-anchor="middle" x="696" y="-653.95" font-family="Times,serif" font-size="9.00">right = 0x5b285359fbf0</text>
</g>
<!-- node_0x5b285359fb30&#45;&gt;node_0x5b285359fb70 -->
<g id="edge1" class="edge">
<title>node_0x5b285359fb30&#45;&gt;node_0x5b285359fb70</title>
<path fill="none" stroke="black" d="M690.49,-740.1C666.68,-730.07 639.5,-718.63 614.85,-708.26"/>
<polygon fill="black" stroke="black" points="616.43,-705.12 605.86,-704.47 613.72,-711.58 616.43,-705.12"/>
</g>
<!-- node_0x5b285359fcb0 -->
<g id="node7" class="node">
<title>node_0x5b285359fcb0</title>
<polygon fill="#bdef9e" stroke="black" points="765,-648 765,-703.5 1177,-703.5 1177,-648 765,-648"/>
<text text-anchor="middle" x="971" y="-690.95" font-family="Times,serif" font-size="9.00">41 (\n)</text>
<polyline fill="none" stroke="black" points="765,-685 1177,-685"/>
<text text-anchor="middle" x="971" y="-672.45" font-family="Times,serif" font-size="9.00">type = 3 (KEYWORD)</text>
<polyline fill="none" stroke="black" points="765,-666.5 1177,-666.5"/>
<text text-anchor="middle" x="813.12" y="-653.95" font-family="Times,serif" font-size="9.00">left = 0x5b285359fcf0</text>
<polyline fill="none" stroke="black" points="861.25,-648 861.25,-666.5"/>
<text text-anchor="middle" x="913.12" y="-653.95" font-family="Times,serif" font-size="9.00">node = 0x5b285359fcb0</text>
<polyline fill="none" stroke="black" points="965,-648 965,-666.5"/>
<text text-anchor="middle" x="1019.5" y="-653.95" font-family="Times,serif" font-size="9.00">parent = 0x5b285359fb30</text>
<polyline fill="none" stroke="black" points="1074,-648 1074,-666.5"/>
<text text-anchor="middle" x="1125.5" y="-653.95" font-family="Times,serif" font-size="9.00">right = 0x5b285359fd70</text>
</g>
<!-- node_0x5b285359fb30&#45;&gt;node_0x5b285359fcb0 -->
<g id="edge6" class="edge">
<title>node_0x5b285359fb30&#45;&gt;node_0x5b285359fcb0</title>
<path fill="none" stroke="black" d="M819.81,-740.1C843.73,-730.07 871.03,-718.63 895.8,-708.26"/>
<polygon fill="black" stroke="black" points="896.97,-711.56 904.84,-704.47 894.27,-705.1 896.97,-711.56"/>
</g>
<!-- node_0x5b285359fbb0 -->
<g id="node3" class="node">
<title>node_0x5b285359fbb0</title>
<polygon fill="#bdef9e" stroke="black" points="0,-555.5 0,-611 322,-611 322,-555.5 0,-555.5"/>
<text text-anchor="middle" x="161" y="-598.45" font-family="Times,serif" font-size="9.00">51 (борт_компании)</text>
<polyline fill="none" stroke="black" points="0,-592.5 322,-592.5"/>
<text text-anchor="middle" x="161" y="-579.95" font-family="Times,serif" font-size="9.00">type = 3 (KEYWORD)</text>
<polyline fill="none" stroke="black" points="0,-574 322,-574"/>
<text text-anchor="middle" x="26" y="-561.45" font-family="Times,serif" font-size="9.00">left = (nil)</text>
<polyline fill="none" stroke="black" points="52,-555.5 52,-574"/>
<text text-anchor="middle" x="104.25" y="-561.45" font-family="Times,serif" font-size="9.00">node = 0x5b285359fbb0</text>
<polyline fill="none" stroke="black" points="156.5,-555.5 156.5,-574"/>
<text text-anchor="middle" x="211" y="-561.45" font-family="Times,serif" font-size="9.00">parent = 0x5b285359fb70</text>
<polyline fill="none" stroke="black" points="265.5,-555.5 265.5,-574"/>
<text text-anchor="middle" x="293.75" y="-561.45" font-family="Times,serif" font-size="9.00">right = (nil)</text>
</g>
<!-- node_0x5b285359fb70&#45;&gt;node_0x5b285359fbb0 -->
<g id="edge2" class="edge">
<title>node_0x5b285359fb70&#45;&gt;node_0x5b285359fbb0</title>
<path fill="none" stroke="black" d="M426.03,-647.54C381.82,-636.98 331.06,-624.86 285.87,-614.07"/>
<polygon fill="black" stroke="black" points="286.82,-610.7 276.28,-611.78 285.2,-617.51 286.82,-610.7"/>
</g>
<!-- node_0x5b285359fbf0 -->
<g id="node4" class="node">
<title>node_0x5b285359fbf0</title>
<polygon fill="#bdef9e" stroke="black" points="340,-555.5 340,-611 752,-611 752,-555.5 340,-555.5"/>
<text text-anchor="middle" x="546" y="-598.45" font-family="Times,serif" font-size="9.00">13 (прилетел_во_Внуково)</text>
<polyline fill="none" stroke="black" points="340,-592.5 752,-592.5"/>
<text text-anchor="middle" x="546" y="-579.95" font-family="Times,serif" font-size="9.00">type = 3 (KEYWORD)</text>
<polyline fill="none" stroke="black" points="340,-574 752,-574"/>
<text text-anchor="middle" x="388.88" y="-561.45" font-family="Times,serif" font-size="9.00">left = 0x5b285359fc30</text>
<polyline fill="none" stroke="black" points="437.75,-555.5 437.75,-574"/>
<text text-anchor="middle" x="489.25" y="-561.45" font-family="Times,serif" font-size="9.00">node = 0x5b285359fbf0</text>
<polyline fill="none" stroke="black" points="540.75,-555.5 540.75,-574"/>
<text text-anchor="middle" x="595.25" y="-561.45" font-family="Times,serif" font-size="9.00">parent = 0x5b285359fb70</text>
<polyline fill="none" stroke="black" points="649.75,-555.5 649.75,-574"/>
<text text-anchor="middle" x="700.88" y="-561.45" font-family="Times,serif" font-size="9.00">right = 0x5b285359fc70</text>
</g>
<!-- node_0x5b285359fb70&#45;&gt;node_0x5b285359fbf0 -->
<g id="edge3" class="edge">
<title>node_0x5b285359fb70&#45;&gt;node_0x5b285359fbf0</title>
<path fill="none" stroke="black" d="M541.8,-647.6C542.32,-639.81 542.89,-631.17 543.44,-622.84"/>
<polygon fill="black" stroke="black" points="546.93,-623.1 544.1,-612.89 539.95,-622.64 546.93,-623.1"/>
</g>
<!-- node_0x5b285359fc30 -->
<g id="node5" class="node">
<title>node_0x5b285359fc30</title>
<polygon fill="#bdef9e" stroke="black" points="88.12,-463 88.12,-518.5 407.88,-518.5 407.88,-463 88.12,-463"/>
<text text-anchor="middle" x="248" y="-505.95" font-family="Times,serif" font-size="9.00">61 (осмотреть_на_дефекты)</text>
<polyline fill="none" stroke="black" points="88.12,-500 407.88,-500"/>
<text text-anchor="middle" x="248" y="-487.45" font-family="Times,serif" font-size="9.00">type = 3 (KEYWORD)</text>
<polyline fill="none" stroke="black" points="88.12,-481.5 407.88,-481.5"/>
<text text-anchor="middle" x="114.12" y="-468.95" font-family="Times,serif" font-size="9.00">left = (nil)</text>
<polyline fill="none" stroke="black" points="140.12,-463 140.12,-481.5"/>
<text text-anchor="middle" x="192" y="-468.95" font-family="Times,serif" font-size="9.00">node = 0x5b285359fc30</text>
<polyline fill="none" stroke="black" points="243.88,-463 243.88,-481.5"/>
<text text-anchor="middle" x="297.62" y="-468.95" font-family="Times,serif" font-size="9.00">parent = 0x5b285359fbf0</text>
<polyline fill="none" stroke="black" points="351.38,-463 351.38,-481.5"/>
<text text-anchor="middle" x="379.62" y="-468.95" font-family="Times,serif" font-size="9.00">right = (nil)</text>
</g>
<!-- node_0x5b285359fbf0&#45;&gt;node_0x5b285359fc30 -->
<g id="edge4" class="edge">
<title>node_0x5b285359fbf0&#45;&gt;node_0x5b285359fc30</title>
<path fill="none" stroke="black" d="M456.59,-555.1C422.49,-544.74 383.4,-532.87 348.34,-522.22"/>
<polygon fill="black" stroke="black" points="349.64,-518.96 339.05,-519.4 347.6,-525.66 349.64,-518.96"/>
</g>
<!-- node_0x5b285359fc70 -->
<g id="node6" class="node">
<title>node_0x5b285359fc70</title>
<polygon fill="#f0ff4f" stroke="black" points="426.12,-463 426.12,-518.5 745.88,-518.5 745.88,-463 426.12,-463"/>
<text text-anchor="middle" x="586" y="-505.95" font-family="Times,serif" font-size="9.00">0 (Трансаэро)</text>
<polyline fill="none" stroke="black" points="426.12,-500 745.88,-500"/>
<text text-anchor="middle" x="586" y="-487.45" font-family="Times,serif" font-size="9.00">type = 2 (IDENTIFIER)</text>
<polyline fill="none" stroke="black" points="426.12,-481.5 745.88,-481.5"/>
<text text-anchor="middle" x="452.12" y="-468.95" font-family="Times,serif" font-size="9.00">left = (nil)</text>
<polyline fill="none" stroke="black" points="478.12,-463 478.12,-481.5"/>
<text text-anchor="middle" x="530" y="-468.95" font-family="Times,serif" font-size="9.00">node = 0x5b285359fc70</text>
<polyline fill="none" stroke="black" points="581.88,-463 581.88,-481.5"/>
<text text-anchor="middle" x="635.62" y="-468.95" font-family="Times,serif" font-size="9.00">parent = 0x5b285359fbf0</text>
<polyline fill="none" stroke="black" points="689.38,-463 689.38,-481.5"/>
<text text-anchor="middle" x="717.62" y="-468.95" font-family="Times,serif" font-size="9.00">right = (nil)</text>
</g>
<!-- node_0x5b285359fbf0&#45;&gt;node_0x5b285359fc70 -->
<g id="edge5" class="edge">
<title>node_0x5b285359fbf0&#45;&gt;node_0x5b285359fc70</title>
<path fill="none" stroke="black" d="M558,-555.1C561.6,-546.95 565.61,-537.87 569.45,-529.19"/>
<polygon fill="black" stroke="black" points="572.55,-530.83 573.4,-520.27 566.15,-528 572.55,-530.83"/>
</g>
<!-- node_0x5b285359fcf0 -->
<g id="node8" class="node">
<title>node_0x5b285359fcf0</title>
<polygon fill="#bdef9e" stroke="black" points="782.25,-555.5 782.25,-611 1147.75,-611 1147.75,-555.5 782.25,-555.5"/>
<text text-anchor="middle" x="965" y="-598.45" font-family="Times,serif" font-size="9.00">62 (починить_двигатель)</text>
<polyline fill="none" stroke="black" points="782.25,-592.5 1147.75,-592.5"/>
<text text-anchor="middle" x="965" y="-579.95" font-family="Times,serif" font-size="9.00">type = 3 (KEYWORD)</text>
<polyline fill="none" stroke="black" points="782.25,-574 1147.75,-574"/>
<text text-anchor="middle" x="808.25" y="-561.45" font-family="Times,serif" font-size="9.00">left = (nil)</text>
<polyline fill="none" stroke="black" points="834.25,-555.5 834.25,-574"/>
<text text-anchor="middle" x="885.38" y="-561.45" font-family="Times,serif" font-size="9.00">node = 0x5b285359fcf0</text>
<polyline fill="none" stroke="black" points="936.5,-555.5 936.5,-574"/>
<text text-anchor="middle" x="990.62" y="-561.45" font-family="Times,serif" font-size="9.00">parent = 0x5b285359fcb0</text>
<polyline fill="none" stroke="black" points="1044.75,-555.5 1044.75,-574"/>
<text text-anchor="middle" x="1096.25" y="-561.45" font-family="Times,serif" font-size="9.00">right = 0x5b285359fd30</text>
</g>
<!-- node_0x5b285359fcb0&#45;&gt;node_0x5b285359fcf0 -->
<g id="edge7" class="edge">
<title>node_0x5b285359fcb0&#45;&gt;node_0x5b285359fcf0</title>
<path fill="none" stroke="black" d="M969.2,-647.6C968.68,-639.81 968.11,-631.17 967.56,-622.84"/>
<polygon fill="black" stroke="black" points="971.05,-622.64 966.9,-612.89 964.07,-623.1 971.05,-622.64"/>
</g>
<!-- node_0x5b285359fd70 -->
<g id="node10" class="node">
<title>node_0x5b285359fd70</title>
<polygon fill="#bdef9e" stroke="black" points="1166,-555.5 1166,-611 1578,-611 1578,-555.5 1166,-555.5"/>
<text text-anchor="middle" x="1372" y="-598.45" font-family="Times,serif" font-size="9.00">41 (\n)</text>
<polyline fill="none" stroke="black" points="1166,-592.5 1578,-592.5"/>
<text text-anchor="middle" x="1372" y="-579.95" font-family="Times,serif" font-size="9.00">type = 3 (KEYWORD)</text>
<polyline fill="none" stroke="black" points="1166,-574 1578,-574"/>
<text text-anchor="middle" x="1215.25" y="-561.45" font-family="Times,serif" font-size="9.00">left = 0x5b285359fdb0</text>
<polyline fill="none" stroke="black" points="1264.5,-555.5 1264.5,-574"/>
<text text-anchor="middle" x="1316.75" y="-561.45" font-family="Times,serif" font-size="9.00">node = 0x5b285359fd70</text>
<polyline fill="none" stroke="black" points="1369,-555.5 1369,-574"/>
<text text-anchor="middle" x="1423.12" y="-561.45" font-family="Times,serif" font-size="9.00">parent = 0x5b285359fcb0</text>
<polyline fill="none" stroke="black" points="1477.25,-555.5 1477.25,-574"/>
<text text-anchor="middle" x="1527.62" y="-561.45" font-family="Times,serif" font-size="9.00">right = 0x5b285359fef0</text>
</g>
<!-- node_0x5b285359fcb0&#45;&gt;node_0x5b285359fd70 -->
<g id="edge9" class="edge">
<title>node_0x5b285359fcb0&#45;&gt;node_0x5b285359fd70</title>
<path fill="none" stroke="black" d="M1091.59,-647.54C1138.55,-636.94 1192.52,-624.76 1240.49,-613.93"/>
<polygon fill="black" stroke="black" points="1241.12,-617.38 1250.1,-611.76 1239.58,-610.55 1241.12,-617.38"/>
</g>
<!-- node_0x5b285359fd30 -->
<g id="node9" class="node">
<title>node_0x5b285359fd30</title>
<polygon fill="#f0ff4f" stroke="black" points="805.12,-463 805.12,-518.5 1124.88,-518.5 1124.88,-463 805.12,-463"/>
<text text-anchor="middle" x="965" y="-505.95" font-family="Times,serif" font-size="9.00">0 (Трансаэро)</text>
<polyline fill="none" stroke="black" points="805.12,-500 1124.88,-500"/>
<text text-anchor="middle" x="965" y="-487.45" font-family="Times,serif" font-size="9.00">type = 2 (IDENTIFIER)</text>
<polyline fill="none" stroke="black" points="805.12,-481.5 1124.88,-481.5"/>
<text text-anchor="middle" x="831.12" y="-468.95" font-family="Times,serif" font-size="9.00">left = (nil)</text>
<polyline fill="none" stroke="black" points="857.12,-463 857.12,-481.5"/>
<text text-anchor="middle" x="909.38" y="-468.95" font-family="Times,serif" font-size="9.00">node = 0x5b285359fd30</text>
<polyline fill="none" stroke="black" points="961.62,-463 961.62,-481.5"/>
<text text-anchor="middle" x="1015" y="-468.95" font-family="Times,serif" font-size="9.00">parent = 0x5b285359fcf0</text>
<polyline fill="none" stroke="black" points="1068.38,-463 1068.38,-481.5"/>
<text text-anchor="middle" x="1096.62" y="-468.95" font-family="Times,serif" font-size="9.00">right = (nil)</text>
</g>
<!-- node_0x5b285359fcf0&#45;&gt;node_0x5b285359fd30 -->
<g id="edge8" class="edge">
<title>node_0x5b285359fcf0&#45;&gt;node_0x5b285359fd30</title>
<path fill="none" stroke="black" d="M965,-555.1C965,-547.31 965,-538.67 965,-530.34"/>
<polygon fill="black" stroke="black" points="968.5,-530.4 965,-520.4 961.5,-530.4 968.5,-530.4"/>
</g>
<!-- node_0x5b285359fdb0 -->
<g id="node11" class="node">
<title>node_0x5b285359fdb0</title>
<polygon fill="#bdef9e" stroke="black" points="1153.62,-463 1153.62,-518.5 1566.38,-518.5 1566.38,-463 1153.62,-463"/>
<text text-anchor="middle" x="1360" y="-505.95" font-family="Times,serif" font-size="9.00">13 (прилетел_во_Внуково)</text>
<polyline fill="none" stroke="black" points="1153.62,-500 1566.38,-500"/>
<text text-anchor="middle" x="1360" y="-487.45" font-family="Times,serif" font-size="9.00">type = 3 (KEYWORD)</text>
<polyline fill="none" stroke="black" points="1153.62,-481.5 1566.38,-481.5"/>
<text text-anchor="middle" x="1202.12" y="-468.95" font-family="Times,serif" font-size="9.00">left = 0x5b285359fdf0</text>
<polyline fill="none" stroke="black" points="1250.62,-463 1250.62,-481.5"/>
<text text-anchor="middle" x="1302.88" y="-468.95" font-family="Times,serif" font-size="9.00">node = 0x5b285359fdb0</text>
<polyline fill="none" stroke="black" points="1355.12,-463 1355.12,-481.5"/>
<text text-anchor="middle" x="1409.62" y="-468.95" font-family="Times,serif" font-size="9.00">parent = 0x5b285359fd70</text>
<polyline fill="none" stroke="black" points="1464.12,-463 1464.12,-481.5"/>
<text text-anchor="middle" x="1515.25" y="-468.95" font-family="Times,serif" font-size="9.00">right = 0x5b285359feb0</text>
</g>
<!-- node_0x5b285359fd70&#45;&gt;node_0x5b285359fdb0 -->
<g id="edge10" class="edge">
<title>node_0x5b285359fd70&#45;&gt;node_0x5b285359fdb0</title>
<path fill="none" stroke="black" d="M1368.4,-555.1C1367.36,-547.22 1366.2,-538.47 1365.08,-530.05"/>
<polygon fill="black" stroke="black" points="1368.58,-529.84 1363.8,-520.38 1361.64,-530.76 1368.58,-529.84"/>
</g>
<!-- node_0x5b285359fef0 -->
<g id="node16" class="node">
<title>node_0x5b285359fef0</title>
<polygon fill="#bdef9e" stroke="black" points="1584,-463 1584,-518.5 1996,-518.5 1996,-463 1584,-463"/>
<text text-anchor="middle" x="1790" y="-505.95" font-family="Times,serif" font-size="9.00">41 (\n)</text>
<polyline fill="none" stroke="black" points="1584,-500 1996,-500"/>
<text text-anchor="middle" x="1790" y="-487.45" font-family="Times,serif" font-size="9.00">type = 3 (KEYWORD)</text>
<polyline fill="none" stroke="black" points="1584,-481.5 1996,-481.5"/>
<text text-anchor="middle" x="1632.5" y="-468.95" font-family="Times,serif" font-size="9.00">left = 0x5b285359ff30</text>
<polyline fill="none" stroke="black" points="1681,-463 1681,-481.5"/>
<text text-anchor="middle" x="1732.12" y="-468.95" font-family="Times,serif" font-size="9.00">node = 0x5b285359fef0</text>
<polyline fill="none" stroke="black" points="1783.25,-463 1783.25,-481.5"/>
<text text-anchor="middle" x="1837.75" y="-468.95" font-family="Times,serif" font-size="9.00">parent = 0x5b285359fd70</text>
<polyline fill="none" stroke="black" points="1892.25,-463 1892.25,-481.5"/>
<text text-anchor="middle" x="1944.12" y="-468.95" font-family="Times,serif" font-size="9.00">right = 0x5b28535a01b0</text>
</g>
<!-- node_0x5b285359fd70&#45;&gt;node_0x5b285359fef0 -->
<g id="edge15" class="edge">
<title>node_0x5b285359fd70&#45;&gt;node_0x5b285359fef0</title>
<path fill="none" stroke="black" d="M1497.7,-555.04C1546.76,-544.41 1603.15,-532.2 1653.23,-521.36"/>
<polygon fill="black" stroke="black" points="1653.96,-524.78 1663,-519.25 1652.48,-517.94 1653.96,-524.78"/>
</g>
<!-- node_0x5b285359fdf0 -->
<g id="node12" class="node">
<title>node_0x5b285359fdf0</title>
<polygon fill="#bdef9e" stroke="black" points="774,-370.5 774,-426 1186,-426 1186,-370.5 774,-370.5"/>
<text text-anchor="middle" x="980" y="-413.45" font-family="Times,serif" font-size="9.00">24 (дозаправить_в_небе)</text>
<polyline fill="none" stroke="black" points="774,-407.5 1186,-407.5"/>
<text text-anchor="middle" x="980" y="-394.95" font-family="Times,serif" font-size="9.00">type = 3 (KEYWORD)</text>
<polyline fill="none" stroke="black" points="774,-389 1186,-389"/>
<text text-anchor="middle" x="822.88" y="-376.45" font-family="Times,serif" font-size="9.00">left = 0x5b285359fe30</text>
<polyline fill="none" stroke="black" points="871.75,-370.5 871.75,-389"/>
<text text-anchor="middle" x="923.25" y="-376.45" font-family="Times,serif" font-size="9.00">node = 0x5b285359fdf0</text>
<polyline fill="none" stroke="black" points="974.75,-370.5 974.75,-389"/>
<text text-anchor="middle" x="1029.25" y="-376.45" font-family="Times,serif" font-size="9.00">parent = 0x5b285359fdb0</text>
<polyline fill="none" stroke="black" points="1083.75,-370.5 1083.75,-389"/>
<text text-anchor="middle" x="1134.88" y="-376.45" font-family="Times,serif" font-size="9.00">right = 0x5b285359fe70</text>
</g>
<!-- node_0x5b285359fdb0&#45;&gt;node_0x5b285359fdf0 -->
<g id="edge11" class="edge">
<title>node_0x5b285359fdb0&#45;&gt;node_0x5b285359fdf0</title>
<path fill="none" stroke="black" d="M1245.73,-462.54C1201.41,-451.98 1150.51,-439.86 1105.2,-429.07"/>
<polygon fill="black" stroke="black" points="1106.12,-425.69 1095.59,-426.78 1104.5,-432.5 1106.12,-425.69"/>
</g>
<!-- node_0x5b285359feb0 -->
<g id="node15" class="node">
<title>node_0x5b285359feb0</title>
<polygon fill="#f0ff4f" stroke="black" points="1204.38,-370.5 1204.38,-426 1525.62,-426 1525.62,-370.5 1204.38,-370.5"/>
<text text-anchor="middle" x="1365" y="-413.45" font-family="Times,serif" font-size="9.00">0 (Трансаэро)</text>
<polyline fill="none" stroke="black" points="1204.38,-407.5 1525.62,-407.5"/>
<text text-anchor="middle" x="1365" y="-394.95" font-family="Times,serif" font-size="9.00">type = 2 (IDENTIFIER)</text>
<polyline fill="none" stroke="black" points="1204.38,-389 1525.62,-389"/>
<text text-anchor="middle" x="1230.38" y="-376.45" font-family="Times,serif" font-size="9.00">left = (nil)</text>
<polyline fill="none" stroke="black" points="1256.38,-370.5 1256.38,-389"/>
<text text-anchor="middle" x="1308.25" y="-376.45" font-family="Times,serif" font-size="9.00">node = 0x5b285359feb0</text>
<polyline fill="none" stroke="black" points="1360.12,-370.5 1360.12,-389"/>
<text text-anchor="middle" x="1414.62" y="-376.45" font-family="Times,serif" font-size="9.00">parent = 0x5b285359fdb0</text>
<polyline fill="none" stroke="black" points="1469.12,-370.5 1469.12,-389"/>
<text text-anchor="middle" x="1497.38" y="-376.45" font-family="Times,serif" font-size="9.00">right = (nil)</text>
</g>
<!-- node_0x5b285359fdb0&#45;&gt;node_0x5b285359feb0 -->
<g id="edge14" class="edge">
<title>node_0x5b285359fdb0&#45;&gt;node_0x5b285359feb0</title>
<path fill="none" stroke="black" d="M1361.5,-462.6C1361.93,-454.81 1362.41,-446.17 1362.87,-437.84"/>
<polygon fill="black" stroke="black" points="1366.36,-438.07 1363.42,-427.9 1359.37,-437.69 1366.36,-438.07"/>
</g>
<!-- node_0x5b285359fe30 -->
<g id="node13" class="node">
<title>node_0x5b285359fe30</title>
<polygon fill="#f0ff4f" stroke="black" points="491.12,-278 491.12,-333.5 810.88,-333.5 810.88,-278 491.12,-278"/>
<text text-anchor="middle" x="651" y="-320.95" font-family="Times,serif" font-size="9.00">0 (Трансаэро)</text>
<polyline fill="none" stroke="black" points="491.12,-315 810.88,-315"/>
<text text-anchor="middle" x="651" y="-302.45" font-family="Times,serif" font-size="9.00">type = 2 (IDENTIFIER)</text>
<polyline fill="none" stroke="black" points="491.12,-296.5 810.88,-296.5"/>
<text text-anchor="middle" x="517.12" y="-283.95" font-family="Times,serif" font-size="9.00">left = (nil)</text>
<polyline fill="none" stroke="black" points="543.12,-278 543.12,-296.5"/>
<text text-anchor="middle" x="595" y="-283.95" font-family="Times,serif" font-size="9.00">node = 0x5b285359fe30</text>
<polyline fill="none" stroke="black" points="646.88,-278 646.88,-296.5"/>
<text text-anchor="middle" x="700.62" y="-283.95" font-family="Times,serif" font-size="9.00">parent = 0x5b285359fdf0</text>
<polyline fill="none" stroke="black" points="754.38,-278 754.38,-296.5"/>
<text text-anchor="middle" x="782.62" y="-283.95" font-family="Times,serif" font-size="9.00">right = (nil)</text>
</g>
<!-- node_0x5b285359fdf0&#45;&gt;node_0x5b285359fe30 -->
<g id="edge12" class="edge">
<title>node_0x5b285359fdf0&#45;&gt;node_0x5b285359fe30</title>
<path fill="none" stroke="black" d="M881.29,-370.1C843.31,-359.65 799.74,-347.66 760.78,-336.95"/>
<polygon fill="black" stroke="black" points="761.95,-333.64 751.38,-334.36 760.1,-340.39 761.95,-333.64"/>
</g>
<!-- node_0x5b285359fe70 -->
<g id="node14" class="node">
<title>node_0x5b285359fe70</title>
<polygon fill="#1ac6d9" stroke="black" points="829.12,-278 829.12,-333.5 1148.88,-333.5 1148.88,-278 829.12,-278"/>
<text text-anchor="middle" x="989" y="-320.95" font-family="Times,serif" font-size="9.00">5</text>
<polyline fill="none" stroke="black" points="829.12,-315 1148.88,-315"/>
<text text-anchor="middle" x="989" y="-302.45" font-family="Times,serif" font-size="9.00">type = 1 (CONSTANT)</text>
<polyline fill="none" stroke="black" points="829.12,-296.5 1148.88,-296.5"/>
<text text-anchor="middle" x="855.12" y="-283.95" font-family="Times,serif" font-size="9.00">left = (nil)</text>
<polyline fill="none" stroke="black" points="881.12,-278 881.12,-296.5"/>
<text text-anchor="middle" x="933" y="-283.95" font-family="Times,serif" font-size="9.00">node = 0x5b285359fe70</text>
<polyline fill="none" stroke="black" points="984.88,-278 984.88,-296.5"/>
<text text-anchor="middle" x="1038.62" y="-283.95" font-family="Times,serif" font-size="9.00">parent = 0x5b285359fdf0</text>
<polyline fill="none" stroke="black" points="1092.38,-278 1092.38,-296.5"/>
<text text-anchor="middle" x="1120.62" y="-283.95" font-family="Times,serif" font-size="9.00">right = (nil)</text>
</g>
<!-- node_0x5b285359fdf0&#45;&gt;node_0x5b285359fe70 -->
<g id="edge13" class="edge">
<title>node_0x5b285359fdf0&#45;&gt;node_0x5b285359fe70</title>
<path fill="none" stroke="black" d="M982.7,-370.1C983.47,-362.31 984.33,-353.67 985.16,-345.34"/>
<polygon fill="black" stroke="black" points="988.64,-345.69 986.15,-335.39 981.68,-344.99 988.64,-345.69"/>
</g>
<!-- node_0x5b285359ff30 -->
<g id="node17" class="node">
<title>node_0x5b285359ff30</title>
<polygon fill="#bdef9e" stroke="black" points="1579.75,-370.5 1579.75,-426 1990.25,-426 1990.25,-370.5 1579.75,-370.5"/>
<text text-anchor="middle" x="1785" y="-413.45" font-family="Times,serif" font-size="9.00">11 (в_яростном_рёве_турбин_слышится)</text>
<polyline fill="none" stroke="black" points="1579.75,-407.5 1990.25,-407.5"/>
<text text-anchor="middle" x="1785" y="-394.95" font-family="Times,serif" font-size="9.00">type = 3 (KEYWORD)</text>
<polyline fill="none" stroke="black" points="1579.75,-389 1990.25,-389"/>
<text text-anchor="middle" x="1628.25" y="-376.45" font-family="Times,serif" font-size="9.00">left = 0x5b285359ff70</text>
<polyline fill="none" stroke="black" points="1676.75,-370.5 1676.75,-389"/>
<text text-anchor="middle" x="1728.25" y="-376.45" font-family="Times,serif" font-size="9.00">node = 0x5b285359ff30</text>
<polyline fill="none" stroke="black" points="1779.75,-370.5 1779.75,-389"/>
<text text-anchor="middle" x="1833.12" y="-376.45" font-family="Times,serif" font-size="9.00">parent = 0x5b285359fef0</text>
<polyline fill="none" stroke="black" points="1886.5,-370.5 1886.5,-389"/>
<text text-anchor="middle" x="1938.38" y="-376.45" font-family="Times,serif" font-size="9.00">right = 0x5b28535a0030</text>
</g>
<!-- node_0x5b285359fef0&#45;&gt;node_0x5b285359ff30 -->
<g id="edge16" class="edge">
<title>node_0x5b285359fef0&#45;&gt;node_0x5b285359ff30</title>
<path fill="none" stroke="black" d="M1788.5,-462.6C1788.07,-454.81 1787.59,-446.17 1787.13,-437.84"/>
<polygon fill="black" stroke="black" points="1790.63,-437.69 1786.58,-427.9 1783.64,-438.07 1790.63,-437.69"/>
</g>
<!-- node_0x5b28535a01b0 -->
<g id="node27" class="node">
<title>node_0x5b28535a01b0</title>
<polygon fill="#bdef9e" stroke="black" points="2007.88,-370.5 2007.88,-426 2374.12,-426 2374.12,-370.5 2007.88,-370.5"/>
<text text-anchor="middle" x="2191" y="-413.45" font-family="Times,serif" font-size="9.00">41 (\n)</text>
<polyline fill="none" stroke="black" points="2007.88,-407.5 2374.12,-407.5"/>
<text text-anchor="middle" x="2191" y="-394.95" font-family="Times,serif" font-size="9.00">type = 3 (KEYWORD)</text>
<polyline fill="none" stroke="black" points="2007.88,-389 2374.12,-389"/>
<text text-anchor="middle" x="2056.75" y="-376.45" font-family="Times,serif" font-size="9.00">left = 0x5b28535a01f0</text>
<polyline fill="none" stroke="black" points="2105.62,-370.5 2105.62,-389"/>
<text text-anchor="middle" x="2158.25" y="-376.45" font-family="Times,serif" font-size="9.00">node = 0x5b28535a01b0</text>
<polyline fill="none" stroke="black" points="2210.88,-370.5 2210.88,-389"/>
<text text-anchor="middle" x="2264.25" y="-376.45" font-family="Times,serif" font-size="9.00">parent = 0x5b285359fef0</text>
<polyline fill="none" stroke="black" points="2317.62,-370.5 2317.62,-389"/>
<text text-anchor="middle" x="2345.88" y="-376.45" font-family="Times,serif" font-size="9.00">right = (nil)</text>
</g>
<!-- node_0x5b285359fef0&#45;&gt;node_0x5b28535a01b0 -->
<g id="edge26" class="edge">
<title>node_0x5b285359fef0&#45;&gt;node_0x5b28535a01b0</title>
<path fill="none" stroke="black" d="M1910.59,-462.54C1957.55,-451.94 2011.52,-439.76 2059.49,-428.93"/>
<polygon fill="black" stroke="black" points="2060.12,-432.38 2069.1,-426.76 2058.58,-425.55 2060.12,-432.38"/>
</g>
<!-- node_0x5b285359ff70 -->
<g id="node18" class="node">
<title>node_0x5b285359ff70</title>
<polygon fill="#bdef9e" stroke="black" points="1184.62,-278 1184.62,-333.5 1591.38,-333.5 1591.38,-278 1184.62,-278"/>
<text text-anchor="middle" x="1388" y="-320.95" font-family="Times,serif" font-size="9.00">31 (рейс_следует_до)</text>
<polyline fill="none" stroke="black" points="1184.62,-315 1591.38,-315"/>
<text text-anchor="middle" x="1388" y="-302.45" font-family="Times,serif" font-size="9.00">type = 3 (KEYWORD)</text>
<polyline fill="none" stroke="black" points="1184.62,-296.5 1591.38,-296.5"/>
<text text-anchor="middle" x="1233.12" y="-283.95" font-family="Times,serif" font-size="9.00">left = 0x5b285359ffb0</text>
<polyline fill="none" stroke="black" points="1281.62,-278 1281.62,-296.5"/>
<text text-anchor="middle" x="1333.12" y="-283.95" font-family="Times,serif" font-size="9.00">node = 0x5b285359ff70</text>
<polyline fill="none" stroke="black" points="1384.62,-278 1384.62,-296.5"/>
<text text-anchor="middle" x="1438.38" y="-283.95" font-family="Times,serif" font-size="9.00">parent = 0x5b285359ff30</text>
<polyline fill="none" stroke="black" points="1492.12,-278 1492.12,-296.5"/>
<text text-anchor="middle" x="1541.75" y="-283.95" font-family="Times,serif" font-size="9.00">right = 0x5b285359fff0</text>
</g>
<!-- node_0x5b285359ff30&#45;&gt;node_0x5b285359ff70 -->
<g id="edge17" class="edge">
<title>node_0x5b285359ff30&#45;&gt;node_0x5b285359ff70</title>
<path fill="none" stroke="black" d="M1665.62,-370.04C1619.12,-359.44 1565.69,-347.26 1518.2,-336.43"/>
<polygon fill="black" stroke="black" points="1519.22,-333.07 1508.69,-334.26 1517.67,-339.9 1519.22,-333.07"/>
</g>
<!-- node_0x5b28535a0030 -->
<g id="node21" class="node">
<title>node_0x5b28535a0030</title>
<polygon fill="#bdef9e" stroke="black" points="1609.75,-278 1609.75,-333.5 1978.25,-333.5 1978.25,-278 1609.75,-278"/>
<text text-anchor="middle" x="1794" y="-320.95" font-family="Times,serif" font-size="9.00">41 (\n)</text>
<polyline fill="none" stroke="black" points="1609.75,-315 1978.25,-315"/>
<text text-anchor="middle" x="1794" y="-302.45" font-family="Times,serif" font-size="9.00">type = 3 (KEYWORD)</text>
<polyline fill="none" stroke="black" points="1609.75,-296.5 1978.25,-296.5"/>
<text text-anchor="middle" x="1659.38" y="-283.95" font-family="Times,serif" font-size="9.00">left = 0x5b28535a0070</text>
<polyline fill="none" stroke="black" points="1709,-278 1709,-296.5"/>
<text text-anchor="middle" x="1761.62" y="-283.95" font-family="Times,serif" font-size="9.00">node = 0x5b28535a0030</text>
<polyline fill="none" stroke="black" points="1814.25,-278 1814.25,-296.5"/>
<text text-anchor="middle" x="1868" y="-283.95" font-family="Times,serif" font-size="9.00">parent = 0x5b285359ff30</text>
<polyline fill="none" stroke="black" points="1921.75,-278 1921.75,-296.5"/>
<text text-anchor="middle" x="1950" y="-283.95" font-family="Times,serif" font-size="9.00">right = (nil)</text>
</g>
<!-- node_0x5b285359ff30&#45;&gt;node_0x5b28535a0030 -->
<g id="edge20" class="edge">
<title>node_0x5b285359ff30&#45;&gt;node_0x5b28535a0030</title>
<path fill="none" stroke="black" d="M1787.7,-370.1C1788.47,-362.31 1789.33,-353.67 1790.16,-345.34"/>
<polygon fill="black" stroke="black" points="1793.64,-345.69 1791.15,-335.39 1786.68,-344.99 1793.64,-345.69"/>
</g>
<!-- node_0x5b285359ffb0 -->
<g id="node19" class="node">
<title>node_0x5b285359ffb0</title>
<polygon fill="#f0ff4f" stroke="black" points="902.5,-185.5 902.5,-241 1221.5,-241 1221.5,-185.5 902.5,-185.5"/>
<text text-anchor="middle" x="1062" y="-228.45" font-family="Times,serif" font-size="9.00">0 (Трансаэро)</text>
<polyline fill="none" stroke="black" points="902.5,-222.5 1221.5,-222.5"/>
<text text-anchor="middle" x="1062" y="-209.95" font-family="Times,serif" font-size="9.00">type = 2 (IDENTIFIER)</text>
<polyline fill="none" stroke="black" points="902.5,-204 1221.5,-204"/>
<text text-anchor="middle" x="928.5" y="-191.45" font-family="Times,serif" font-size="9.00">left = (nil)</text>
<polyline fill="none" stroke="black" points="954.5,-185.5 954.5,-204"/>
<text text-anchor="middle" x="1006" y="-191.45" font-family="Times,serif" font-size="9.00">node = 0x5b285359ffb0</text>
<polyline fill="none" stroke="black" points="1057.5,-185.5 1057.5,-204"/>
<text text-anchor="middle" x="1111.25" y="-191.45" font-family="Times,serif" font-size="9.00">parent = 0x5b285359ff70</text>
<polyline fill="none" stroke="black" points="1165,-185.5 1165,-204"/>
<text text-anchor="middle" x="1193.25" y="-191.45" font-family="Times,serif" font-size="9.00">right = (nil)</text>
</g>
<!-- node_0x5b285359ff70&#45;&gt;node_0x5b285359ffb0 -->
<g id="edge18" class="edge">
<title>node_0x5b285359ff70&#45;&gt;node_0x5b285359ffb0</title>
<path fill="none" stroke="black" d="M1290.19,-277.6C1252.56,-267.15 1209.38,-255.16 1170.78,-244.45"/>
<polygon fill="black" stroke="black" points="1172.05,-241.17 1161.48,-241.87 1170.18,-247.91 1172.05,-241.17"/>
</g>
<!-- node_0x5b285359fff0 -->
<g id="node20" class="node">
<title>node_0x5b285359fff0</title>
<polygon fill="#1ac6d9" stroke="black" points="1239.62,-185.5 1239.62,-241 1556.38,-241 1556.38,-185.5 1239.62,-185.5"/>
<text text-anchor="middle" x="1398" y="-228.45" font-family="Times,serif" font-size="9.00">5</text>
<polyline fill="none" stroke="black" points="1239.62,-222.5 1556.38,-222.5"/>
<text text-anchor="middle" x="1398" y="-209.95" font-family="Times,serif" font-size="9.00">type = 1 (CONSTANT)</text>
<polyline fill="none" stroke="black" points="1239.62,-204 1556.38,-204"/>
<text text-anchor="middle" x="1265.62" y="-191.45" font-family="Times,serif" font-size="9.00">left = (nil)</text>
<polyline fill="none" stroke="black" points="1291.62,-185.5 1291.62,-204"/>
<text text-anchor="middle" x="1342" y="-191.45" font-family="Times,serif" font-size="9.00">node = 0x5b285359fff0</text>
<polyline fill="none" stroke="black" points="1392.38,-185.5 1392.38,-204"/>
<text text-anchor="middle" x="1446.12" y="-191.45" font-family="Times,serif" font-size="9.00">parent = 0x5b285359ff70</text>
<polyline fill="none" stroke="black" points="1499.88,-185.5 1499.88,-204"/>
<text text-anchor="middle" x="1528.12" y="-191.45" font-family="Times,serif" font-size="9.00">right = (nil)</text>
</g>
<!-- node_0x5b285359ff70&#45;&gt;node_0x5b285359fff0 -->
<g id="edge19" class="edge">
<title>node_0x5b285359ff70&#45;&gt;node_0x5b285359fff0</title>
<path fill="none" stroke="black" d="M1391,-277.6C1391.87,-269.72 1392.84,-260.97 1393.77,-252.55"/>
<polygon fill="black" stroke="black" points="1397.22,-253.21 1394.84,-242.89 1390.26,-252.44 1397.22,-253.21"/>
</g>
<!-- node_0x5b28535a0070 -->
<g id="node22" class="node">
<title>node_0x5b28535a0070</title>
<polygon fill="#bdef9e" stroke="black" points="1585,-185.5 1585,-241 2003,-241 2003,-185.5 1585,-185.5"/>
<text text-anchor="middle" x="1794" y="-228.45" font-family="Times,serif" font-size="9.00">13 (прилетел_во_Внуково)</text>
<polyline fill="none" stroke="black" points="1585,-222.5 2003,-222.5"/>
<text text-anchor="middle" x="1794" y="-209.95" font-family="Times,serif" font-size="9.00">type = 3 (KEYWORD)</text>
<polyline fill="none" stroke="black" points="1585,-204 2003,-204"/>
<text text-anchor="middle" x="1634.62" y="-191.45" font-family="Times,serif" font-size="9.00">left = 0x5b28535a00b0</text>
<polyline fill="none" stroke="black" points="1684.25,-185.5 1684.25,-204"/>
<text text-anchor="middle" x="1736.88" y="-191.45" font-family="Times,serif" font-size="9.00">node = 0x5b28535a0070</text>
<polyline fill="none" stroke="black" points="1789.5,-185.5 1789.5,-204"/>
<text text-anchor="middle" x="1844.38" y="-191.45" font-family="Times,serif" font-size="9.00">parent = 0x5b28535a0030</text>
<polyline fill="none" stroke="black" points="1899.25,-185.5 1899.25,-204"/>
<text text-anchor="middle" x="1951.12" y="-191.45" font-family="Times,serif" font-size="9.00">right = 0x5b28535a0170</text>
</g>
<!-- node_0x5b28535a0030&#45;&gt;node_0x5b28535a0070 -->
<g id="edge21" class="edge">
<title>node_0x5b28535a0030&#45;&gt;node_0x5b28535a0070</title>
<path fill="none" stroke="black" d="M1794,-277.6C1794,-269.81 1794,-261.17 1794,-252.84"/>
<polygon fill="black" stroke="black" points="1797.5,-252.9 1794,-242.9 1790.5,-252.9 1797.5,-252.9"/>
</g>
<!-- node_0x5b28535a00b0 -->
<g id="node23" class="node">
<title>node_0x5b28535a00b0</title>
<polygon fill="#bdef9e" stroke="black" points="1391.75,-93 1391.75,-148.5 1808.25,-148.5 1808.25,-93 1391.75,-93"/>
<text text-anchor="middle" x="1600" y="-135.95" font-family="Times,serif" font-size="9.00">26 (уйти_в_штопор)</text>
<polyline fill="none" stroke="black" points="1391.75,-130 1808.25,-130"/>
<text text-anchor="middle" x="1600" y="-117.45" font-family="Times,serif" font-size="9.00">type = 3 (KEYWORD)</text>
<polyline fill="none" stroke="black" points="1391.75,-111.5 1808.25,-111.5"/>
<text text-anchor="middle" x="1440.62" y="-98.95" font-family="Times,serif" font-size="9.00">left = 0x5b28535a00f0</text>
<polyline fill="none" stroke="black" points="1489.5,-93 1489.5,-111.5"/>
<text text-anchor="middle" x="1542.12" y="-98.95" font-family="Times,serif" font-size="9.00">node = 0x5b28535a00b0</text>
<polyline fill="none" stroke="black" points="1594.75,-93 1594.75,-111.5"/>
<text text-anchor="middle" x="1649.62" y="-98.95" font-family="Times,serif" font-size="9.00">parent = 0x5b28535a0070</text>
<polyline fill="none" stroke="black" points="1704.5,-93 1704.5,-111.5"/>
<text text-anchor="middle" x="1756.38" y="-98.95" font-family="Times,serif" font-size="9.00">right = 0x5b28535a0130</text>
</g>
<!-- node_0x5b28535a0070&#45;&gt;node_0x5b28535a00b0 -->
<g id="edge22" class="edge">
<title>node_0x5b28535a0070&#45;&gt;node_0x5b28535a00b0</title>
<path fill="none" stroke="black" d="M1735.79,-185.1C1714.6,-175.21 1690.44,-163.94 1668.44,-153.68"/>
<polygon fill="black" stroke="black" points="1670.08,-150.58 1659.54,-149.52 1667.12,-156.92 1670.08,-150.58"/>
</g>
<!-- node_0x5b28535a0170 -->
<g id="node26" class="node">
<title>node_0x5b28535a0170</title>
<polygon fill="#f0ff4f" stroke="black" points="1826.25,-93 1826.25,-148.5 2149.75,-148.5 2149.75,-93 1826.25,-93"/>
<text text-anchor="middle" x="1988" y="-135.95" font-family="Times,serif" font-size="9.00">0 (Трансаэро)</text>
<polyline fill="none" stroke="black" points="1826.25,-130 2149.75,-130"/>
<text text-anchor="middle" x="1988" y="-117.45" font-family="Times,serif" font-size="9.00">type = 2 (IDENTIFIER)</text>
<polyline fill="none" stroke="black" points="1826.25,-111.5 2149.75,-111.5"/>
<text text-anchor="middle" x="1852.25" y="-98.95" font-family="Times,serif" font-size="9.00">left = (nil)</text>
<polyline fill="none" stroke="black" points="1878.25,-93 1878.25,-111.5"/>
<text text-anchor="middle" x="1930.88" y="-98.95" font-family="Times,serif" font-size="9.00">node = 0x5b28535a0170</text>
<polyline fill="none" stroke="black" points="1983.5,-93 1983.5,-111.5"/>
<text text-anchor="middle" x="2038.38" y="-98.95" font-family="Times,serif" font-size="9.00">parent = 0x5b28535a0070</text>
<polyline fill="none" stroke="black" points="2093.25,-93 2093.25,-111.5"/>
<text text-anchor="middle" x="2121.5" y="-98.95" font-family="Times,serif" font-size="9.00">right = (nil)</text>
</g>
<!-- node_0x5b28535a0070&#45;&gt;node_0x5b28535a0170 -->
<g id="edge25" class="edge">
<title>node_0x5b28535a0070&#45;&gt;node_0x5b28535a0170</title>
<path fill="none" stroke="black" d="M1852.21,-185.1C1873.4,-175.21 1897.56,-163.94 1919.56,-153.68"/>
<polygon fill="black" stroke="black" points="1920.88,-156.92 1928.46,-149.52 1917.92,-150.58 1920.88,-156.92"/>
</g>
<!-- node_0x5b28535a00f0 -->
<g id="node24" class="node">
<title>node_0x5b28535a00f0</title>
<polygon fill="#f0ff4f" stroke="black" points="1269,-0.5 1269,-56 1591,-56 1591,-0.5 1269,-0.5"/>
<text text-anchor="middle" x="1430" y="-43.45" font-family="Times,serif" font-size="9.00">0 (Трансаэро)</text>
<polyline fill="none" stroke="black" points="1269,-37.5 1591,-37.5"/>
<text text-anchor="middle" x="1430" y="-24.95" font-family="Times,serif" font-size="9.00">type = 2 (IDENTIFIER)</text>
<polyline fill="none" stroke="black" points="1269,-19 1591,-19"/>
<text text-anchor="middle" x="1295" y="-6.45" font-family="Times,serif" font-size="9.00">left = (nil)</text>
<polyline fill="none" stroke="black" points="1321,-0.5 1321,-19"/>
<text text-anchor="middle" x="1372.88" y="-6.45" font-family="Times,serif" font-size="9.00">node = 0x5b28535a00f0</text>
<polyline fill="none" stroke="black" points="1424.75,-0.5 1424.75,-19"/>
<text text-anchor="middle" x="1479.62" y="-6.45" font-family="Times,serif" font-size="9.00">parent = 0x5b28535a00b0</text>
<polyline fill="none" stroke="black" points="1534.5,-0.5 1534.5,-19"/>
<text text-anchor="middle" x="1562.75" y="-6.45" font-family="Times,serif" font-size="9.00">right = (nil)</text>
</g>
<!-- node_0x5b28535a00b0&#45;&gt;node_0x5b28535a00f0 -->
<g id="edge23" class="edge">
<title>node_0x5b28535a00b0&#45;&gt;node_0x5b28535a00f0</title>
<path fill="none" stroke="black" d="M1548.99,-92.6C1530.76,-82.89 1510.02,-71.85 1491.02,-61.73"/>
<polygon fill="black" stroke="black" points="1492.78,-58.7 1482.31,-57.1 1489.49,-64.88 1492.78,-58.7"/>
</g>
<!-- node_0x5b28535a0130 -->
<g id="node25" class="node">
<title>node_0x5b28535a0130</title>
<polygon fill="#1ac6d9" stroke="black" points="1609.25,-0.5 1609.25,-56 1932.75,-56 1932.75,-0.5 1609.25,-0.5"/>
<text text-anchor="middle" x="1771" y="-43.45" font-family="Times,serif" font-size="9.00">&#45;1</text>
<polyline fill="none" stroke="black" points="1609.25,-37.5 1932.75,-37.5"/>
<text text-anchor="middle" x="1771" y="-24.95" font-family="Times,serif" font-size="9.00">type = 1 (CONSTANT)</text>
<polyline fill="none" stroke="black" points="1609.25,-19 1932.75,-19"/>
<text text-anchor="middle" x="1635.25" y="-6.45" font-family="Times,serif" font-size="9.00">left = (nil)</text>
<polyline fill="none" stroke="black" points="1661.25,-0.5 1661.25,-19"/>
<text text-anchor="middle" x="1713.88" y="-6.45" font-family="Times,serif" font-size="9.00">node = 0x5b28535a0130</text>
<polyline fill="none" stroke="black" points="1766.5,-0.5 1766.5,-19"/>
<text text-anchor="middle" x="1821.38" y="-6.45" font-family="Times,serif" font-size="9.00">parent = 0x5b28535a00b0</text>
<polyline fill="none" stroke="black" points="1876.25,-0.5 1876.25,-19"/>
<text text-anchor="middle" x="1904.5" y="-6.45" font-family="Times,serif" font-size="9.00">right = (nil)</text>
</g>
<!-- node_0x5b28535a00b0&#45;&gt;node_0x5b28535a0130 -->
<g id="edge24" class="edge">
<title>node_0x5b28535a00b0&#45;&gt;node_0x5b28535a0130</title>
<path fill="none" stroke="black" d="M1651.31,-92.6C1669.65,-82.89 1690.51,-71.85 1709.62,-61.73"/>
<polygon fill="black" stroke="black" points="1711.19,-64.86 1718.39,-57.09 1707.92,-58.68 1711.19,-64.86"/>
</g>
<!-- node_0x5b28535a01f0 -->
<g id="node28" class="node">
<title>node_0x5b28535a01f0</title>
<polygon fill="#bdef9e" stroke="black" points="2006.38,-278 2006.38,-333.5 2375.62,-333.5 2375.62,-278 2006.38,-278"/>
<text text-anchor="middle" x="2191" y="-320.95" font-family="Times,serif" font-size="9.00">62 (починить_двигатель)</text>
<polyline fill="none" stroke="black" points="2006.38,-315 2375.62,-315"/>
<text text-anchor="middle" x="2191" y="-302.45" font-family="Times,serif" font-size="9.00">type = 3 (KEYWORD)</text>
<polyline fill="none" stroke="black" points="2006.38,-296.5 2375.62,-296.5"/>
<text text-anchor="middle" x="2032.38" y="-283.95" font-family="Times,serif" font-size="9.00">left = (nil)</text>
<polyline fill="none" stroke="black" points="2058.38,-278 2058.38,-296.5"/>
<text text-anchor="middle" x="2110.25" y="-283.95" font-family="Times,serif" font-size="9.00">node = 0x5b28535a01f0</text>
<polyline fill="none" stroke="black" points="2162.12,-278 2162.12,-296.5"/>
<text text-anchor="middle" x="2217" y="-283.95" font-family="Times,serif" font-size="9.00">parent = 0x5b28535a01b0</text>
<polyline fill="none" stroke="black" points="2271.88,-278 2271.88,-296.5"/>
<text text-anchor="middle" x="2323.75" y="-283.95" font-family="Times,serif" font-size="9.00">right = 0x5b28535a0230</text>
</g>
<!-- node_0x5b28535a01b0&#45;&gt;node_0x5b28535a01f0 -->
<g id="edge27" class="edge">
<title>node_0x5b28535a01b0&#45;&gt;node_0x5b28535a01f0</title>
<path fill="none" stroke="black" d="M2191,-370.1C2191,-362.31 2191,-353.67 2191,-345.34"/>
<polygon fill="black" stroke="black" points="2194.5,-345.4 2191,-335.4 2187.5,-345.4 2194.5,-345.4"/>
</g>
<!-- node_0x5b28535a0230 -->
<g id="node29" class="node">
<title>node_0x5b28535a0230</title>
<polygon fill="#f0ff4f" stroke="black" points="2030,-185.5 2030,-241 2352,-241 2352,-185.5 2030,-185.5"/>
<text text-anchor="middle" x="2191" y="-228.45" font-family="Times,serif" font-size="9.00">0 (Трансаэро)</text>
<polyline fill="none" stroke="black" points="2030,-222.5 2352,-222.5"/>
<text text-anchor="middle" x="2191" y="-209.95" font-family="Times,serif" font-size="9.00">type = 2 (IDENTIFIER)</text>
<polyline fill="none" stroke="black" points="2030,-204 2352,-204"/>
<text text-anchor="middle" x="2056" y="-191.45" font-family="Times,serif" font-size="9.00">left = (nil)</text>
<polyline fill="none" stroke="black" points="2082,-185.5 2082,-204"/>
<text text-anchor="middle" x="2134.62" y="-191.45" font-family="Times,serif" font-size="9.00">node = 0x5b28535a0230</text>
<polyline fill="none" stroke="black" points="2187.25,-185.5 2187.25,-204"/>
<text text-anchor="middle" x="2241.38" y="-191.45" font-family="Times,serif" font-size="9.00">parent = 0x5b28535a01f0</text>
<polyline fill="none" stroke="black" points="2295.5,-185.5 2295.5,-204"/>
<text text-anchor="middle" x="2323.75" y="-191.45" font-family="Times,serif" font-size="9.00">right = (nil)</text>
</g>
<!-- node_0x5b28535a01f0&#45;&gt;node_0x5b28535a0230 -->
<g id="edge28" class="edge">
<title>node_0x5b28535a01f0&#45;&gt;node_0x5b28535a0230</title>
<path fill="none" stroke="black" d="M2191,-277.6C2191,-269.81 2191,-261.17 2191,-252.84"/>
<polygon fill="black" stroke="black" points="2194.5,-252.9 2191,-242.9 2187.5,-252.9 2194.5,-252.9"/>
</g>
</g>
</svg>
